<?xml version="1.0" encoding="utf-8"?>
<svg width="22px" height="23px" viewBox="0 0 22 23" version="1.1" xmlns:xlink="http://www.w3.org/1999/xlink" xmlns="http://www.w3.org/2000/svg">
  <desc>Created with Lunacy</desc>
  <path d="M8.84678 15.9821C4.91264 15.9821 1.71145 12.7809 1.71145 8.84678C1.71145 4.91264 4.91264 1.71145 8.84678 1.71145C12.7828 1.71145 15.9821 4.91264 15.9821 8.84678C15.9821 12.7809 12.7828 15.9821 8.84678 15.9821L8.84678 15.9821ZM21.9887 20.8105L15.6321 14.4539C16.9001 12.922 17.6936 10.9852 17.6936 8.84678C17.6936 3.96896 13.7246 0 8.84678 0C3.96896 0 0 3.96896 0 8.84678C0 13.7246 3.96896 17.6936 8.84678 17.6936C10.9687 17.6936 12.8927 16.9111 14.4191 15.6596L20.7793 22.0198L21.9887 20.8105Z" id="icon-search" fill="#0E498D" fill-rule="evenodd" stroke="none" />
</svg>