<?xml version="1.0" encoding="utf-8"?>
<svg width="114px" height="60px" viewBox="0 0 114 60" version="1.1" xmlns:xlink="http://www.w3.org/1999/xlink" xmlns="http://www.w3.org/2000/svg">
  <desc>Created with Lunacy</desc>
  <g id="Dog">
    <path d="M74.3598 19.5341C73.9145 19.1864 73.4872 18.6777 72.6508 19.4453C73.4331 19.4858 73.8964 19.5103 74.3598 19.5341ZM37.0334 28.3703C37.4125 27.5849 37.6352 26.9134 36.2872 27.3118C36.5701 27.7138 36.7987 28.0423 37.0334 28.3703ZM29.6801 18.8054C30.0652 19.422 30.4022 20.0553 31.4191 19.787C30.9858 19.4459 30.703 19.1805 30.3721 18.9855C30.1795 18.868 29.9147 18.862 29.6801 18.8054ZM77.6814 32.9176C77.7295 31.9586 77.3444 31.596 76.2252 31.9223C76.869 32.36 77.2722 32.6391 77.6814 32.9176ZM49.5437 18.4493C49.5257 18.5155 49.5076 18.5823 49.4956 18.6491C50.2056 18.6491 50.9157 18.6491 51.6258 18.6491C51.6258 18.5823 51.6258 18.5155 51.6258 18.4493C50.9338 18.4493 50.2357 18.4493 49.5437 18.4493ZM26.4667 15.0113C26.6352 14.8396 26.7977 14.669 26.9662 14.4979C26.5811 13.7912 25.9733 13.3702 24.6735 13.1167C25.4678 13.9564 25.9673 14.4836 26.4667 15.0113ZM59.5327 24.1243C60.8084 25.2884 61.6749 24.3873 62.5836 23.708C61.5907 23.6997 60.5437 23.1528 59.5327 24.1243ZM54.8993 26.2342C55.0678 26.1471 55.2362 26.0612 55.4047 25.9742C55.3325 25.6527 55.2543 25.3319 55.1761 25.0021C55.7718 24.8667 56.3194 24.7433 56.867 24.6193C56.8309 24.4612 56.7948 24.3044 56.7647 24.1463C55.7357 24.0778 54.6947 23.8953 53.6597 24.7302C54.117 25.289 54.5081 25.7619 54.8993 26.2342ZM44.2062 24.426C44.1641 24.3312 44.128 24.2376 44.0859 24.1434C42.6718 24.0563 41.2517 23.9078 39.8315 23.9096C39.2779 23.9102 38.6702 24.1678 38.1827 24.4588C37.912 24.6199 37.6352 25.1452 37.7074 25.4124C37.8097 25.7923 38.1767 26.2461 38.5378 26.3785C39.0673 26.5735 39.6991 26.5133 40.2828 26.561C40.2467 26.4745 40.2046 26.3881 40.1685 26.3016C41.5164 25.676 42.8583 25.0504 44.2062 24.426ZM4.9964 36.9328C10.8033 39.1364 16.562 39.6874 22.5855 39.6194C22.7299 39.1704 22.9285 38.5174 23.1752 37.7296C22.4771 37.6437 22.0198 37.5382 21.5685 37.5411C19.4323 37.5537 17.2961 37.5912 15.1599 37.63C12.3919 37.6801 9.71409 37.2495 7.18074 36.1039C6.77155 35.9196 6.36236 35.7455 5.88698 35.5392C5.62823 35.9477 5.42364 36.2673 4.9964 36.9328ZM95.9986 34.8587C95.3246 36.7844 96.1851 37.8906 97.6714 38.6993C98.0205 38.8901 98.3935 39.0428 98.7726 39.1668C100.524 39.7381 101.944 40.8038 103.316 41.9923C104.959 43.4206 106.68 44.766 108.34 46.1293C109.231 45.6862 109.556 45.2163 108.876 44.3939C107.654 42.9137 106.487 41.3864 105.284 39.8872C102.931 36.9501 99.928 35.1825 95.9986 34.8587ZM66.6694 39.4519C66.4889 38.7166 66.3445 38.0755 66.17 37.4445C65.9233 36.5458 66.1279 35.8129 67.0606 35.5135C67.9812 35.2171 68.4205 35.6865 68.8658 36.5524C70.1295 38.9766 71.8746 40.9553 74.8111 41.4181C77.7175 41.8761 80.6179 42.4086 83.5424 42.7193C85.7207 42.9507 87.6945 43.6514 89.608 44.611C92.9838 46.304 95.794 48.7902 98.6944 51.1262C100.764 52.7924 102.708 54.6196 104.796 56.4582C105.326 55.7414 105.747 55.1695 106.162 54.6143C105.067 51.6915 102.726 49.8011 100.825 47.6148C99.928 46.5867 98.7065 45.7888 97.5331 45.0517C95.2223 43.6055 93.5194 41.7765 92.9959 39.0267C92.9297 38.682 92.683 38.3701 92.4904 37.9866C90.4926 39.3386 88.5068 39.366 86.4489 38.5084C85.3416 38.0474 84.1983 37.6741 83.0911 37.2149C82.369 36.9156 81.7793 36.8488 81.0331 37.3068C78.8067 38.6718 76.6404 38.0802 74.6245 36.7742C73.7941 36.2351 73.1202 35.4551 72.356 34.8128C71.8986 34.4311 71.4413 33.8837 70.9118 33.7894C67.7345 33.2199 64.6055 32.8633 61.6208 34.7961C59.7915 35.9828 57.7516 36.8863 55.7297 37.7308C53.8462 38.5168 51.8063 38.9235 49.9288 37.735C47.6723 36.3037 45.4879 36.6585 43.2374 37.655C42.0159 38.1965 40.7883 38.7571 39.5186 39.171C37.2139 39.9236 35.6855 39.372 34.3436 37.3449C33.2785 35.7342 32.1954 34.1222 31.2927 32.4226C29.8425 29.696 28.0794 27.4716 24.8962 26.5216C23.2594 26.0326 22.9044 24.9478 23.127 23.1749C23.1992 22.5815 23.3076 21.9875 23.3196 21.3924C23.3497 19.9683 23.0849 18.5996 22.1943 17.4433C20.8284 15.662 18.8847 14.5617 17.0434 13.3666C16.7545 13.1823 16.2551 13.1847 15.9001 13.2771C14.8951 13.5401 14.1309 14.0751 13.6435 15.0781C12.6145 17.1707 11.5073 19.3069 9.37711 20.468C7.93894 21.2528 7.31914 22.3608 6.96411 24.0414C7.6862 24.1231 8.38423 24.2728 9.08226 24.2692C11.8804 24.2555 14.6905 24.2883 17.4826 24.1237C19.8234 23.9847 21.5505 25.3074 23.3015 26.391C25.7085 27.8813 26.9602 30.2131 26.9 33.1096C26.8458 35.7896 26.3765 38.3933 25.2331 40.8402C24.9864 41.3709 24.6675 41.9256 24.2342 42.3048C21.8573 44.3939 19.0833 45.4858 15.87 45.6498C13.4028 45.7744 10.9477 46.1394 8.49856 46.496C7.61399 46.6249 6.83172 47.0799 7.271 48.263C10.5024 49.3973 13.7458 49.2077 16.9712 48.4837C21.051 47.5677 24.7698 45.7953 28.2539 43.525C29.8124 42.5076 31.3349 41.2696 33.1762 43.0258C37.7615 44.6199 42.4912 45.4834 47.3413 45.1524C50.2598 44.9539 53.1422 44.243 56.0486 43.8059C59.3462 43.3103 62.1684 41.5528 65.2493 40.4842C65.7789 40.2993 66.2001 39.8019 66.6694 39.4519ZM16.3574 42.3329C14.835 42.1874 13.2945 42.1635 11.8022 41.8719C8.08336 41.1425 4.20209 40.7686 1.3137 37.8757C0.44117 37.0056 -0.407293 36.1528 0.212506 34.7514C1.06699 32.8192 2.45702 31.6921 4.09979 31.8549C4.94826 31.9378 5.78468 32.2449 6.58501 32.5586C7.63806 32.9724 8.64298 33.5103 9.69002 33.9624C12.4641 35.1676 15.4548 34.9374 18.3672 35.1539C20.028 35.2768 21.7009 35.176 23.2895 35.176C24.4208 32.0356 23.3497 29.4617 20.5696 28.2803C18.632 27.4567 16.6402 27.0083 14.504 27.2265C12.7048 27.4102 10.8995 27.4776 9.09429 27.5599C6.93402 27.6583 4.97834 26.9868 3.26938 25.7464C2.10801 24.9079 1.1392 23.8177 1.46414 22.2112C1.78307 20.6326 2.97452 19.7637 4.34651 19.1399C5.25515 18.7272 6.22998 18.4541 7.15065 18.0683C9.61179 17.039 10.4061 14.669 11.5193 12.58C11.6577 12.3265 11.405 11.8489 11.2847 11.4875C10.015 7.52764 10.9056 4.01271 13.5954 0.922982C14.7026 -0.353224 15.9482 -0.304919 16.929 1.06134C17.4887 1.84555 17.7956 2.82178 18.1566 3.73481C18.3732 4.28286 18.4755 4.87624 18.7222 5.81431C19.7272 4.86371 20.5636 4.08606 21.382 3.28933C21.6708 3.01083 21.8874 2.66554 22.1703 2.38346C23.0247 1.52471 24.1079 1.07326 25.2572 1.45911C26.4727 1.86523 27.2731 2.87188 27.3874 4.13735C27.4897 5.31396 27.586 6.62476 27.1768 7.68627C26.1779 10.2983 27.7906 11.6032 29.9569 12.1906C32.2134 12.8024 34.488 13.4542 36.7987 13.7518C41.1734 14.316 45.5722 14.8664 49.971 15.003C54.797 15.1521 59.5628 14.282 64.2925 13.2992C69.5518 12.2055 74.7208 12.608 79.607 14.8139C81.3882 15.6196 83.0009 16.9549 84.445 18.3068C85.4319 19.2306 86.1901 19.2449 87.2853 18.7636C91.8586 16.7581 96.1189 14.2802 99.6933 10.7724C101.354 9.14377 102.925 7.42388 104.471 5.69026C105.741 4.26974 107.125 4.28107 107.961 5.98606C108.527 7.15492 108.948 8.47585 109.075 9.76339C109.55 14.6899 107.871 19.0236 105.031 22.9793C104.447 23.7891 103.887 24.6318 103.195 25.345C101.986 26.5908 101.553 26.5992 100.06 25.7225C99.7234 25.5245 99.3924 25.317 99.0434 25.1065C97.5391 26.6075 96.0889 28.0519 94.6206 29.5201C94.8733 31.3086 95.1441 31.5853 96.8471 31.9533C98.7907 32.3731 100.855 32.4786 102.57 33.5932C104.014 34.5301 105.536 35.4569 106.686 36.6961C108.539 38.6939 110.17 40.9064 111.782 43.1081C112.565 44.1738 113.197 45.3767 113.714 46.5938C114.659 48.8141 113.16 50.9079 110.723 50.6544C109.327 50.5089 107.979 49.8971 106.878 49.575C107.685 51.0749 108.635 52.9301 109.67 54.7383C110.296 55.8326 110.158 56.9395 109.857 58.0254C109.55 59.1227 108.816 59.8503 107.57 59.9529C105.639 60.1121 103.827 59.9218 102.305 58.5383C100.825 57.1917 99.3563 55.8219 97.7798 54.5946C94.8854 52.3445 91.9669 50.1135 88.9582 48.0239C86.7558 46.4978 84.1141 46.1925 81.5025 45.8693C78.3193 45.4757 75.0819 45.2801 72.0852 43.9967C70.8696 43.4755 69.7383 42.7587 68.4386 42.0621C62.2707 45.7458 55.3987 47.8939 48.0815 48.198C43.0027 48.4092 37.8939 47.9023 33.0498 46.0643C31.8584 45.6122 30.9317 45.5693 29.7402 46.3475C25.7988 48.9143 21.5625 50.9222 16.8689 51.7285C13.2584 52.3487 9.62985 52.1143 6.06149 51.4422C4.94224 51.2323 3.85909 50.4934 2.92037 49.7861C1.01885 48.3555 1.31972 46.0512 3.49203 44.9974C4.20209 44.6521 4.98436 44.379 5.76061 44.2442C9.24473 43.6419 12.7409 43.1016 16.237 42.5392C16.2731 42.47 16.3153 42.4014 16.3574 42.3329L16.3574 42.3329Z" id="Fill-336" fill="#0E498D" fill-rule="evenodd" stroke="none" />
    <path d="M3.99996 1.34482C4.00646 2.28048 3.14849 3.02775 2.10202 2.99921C1.11405 2.97238 -0.0624196 2.10009 0.00257853 1.43959C0.0805763 0.664914 1.02955 0.0323878 2.17352 0.00156067C3.36948 -0.0304081 3.99346 0.429144 3.99996 1.34482" transform="translate(14 17)" id="Fill-337" fill="#0E498D" fill-rule="evenodd" stroke="none" />
  </g>
</svg>