<?xml version="1.0" encoding="utf-8"?>
<svg width="115px" height="102px" viewBox="0 0 115 102" version="1.1" xmlns:xlink="http://www.w3.org/1999/xlink" xmlns="http://www.w3.org/2000/svg">
  <desc>Created with Lunacy</desc>
  <g id="Group">
    <path d="M95.3349 93.7206C95.3349 92.0823 95.328 90.4963 95.3349 88.9104C95.3418 87.3775 95.252 85.8349 95.3971 84.3151C95.6942 81.2803 96.1709 78.2633 96.4541 75.2278C96.5232 74.5247 96.3505 73.5572 95.8945 73.0917C94.5059 71.6689 92.9169 70.4314 91.093 68.8483C91.5075 70.773 91.9497 72.1675 92.0879 73.5909C92.5093 78.0747 93.0205 82.5474 92.6129 87.0821C92.3918 89.5653 92.8824 92.1167 91.6043 94.4925C93.138 95.2569 93.9877 93.9492 95.3349 93.7206ZM25.2611 39.6995C26.1951 39.1982 26.9869 38.9475 27.5416 38.44C28.9607 37.1412 29.0912 35.3928 29.1044 33.5741C29.1258 30.5936 29.1735 27.6049 29.4215 24.6369C29.6757 21.5835 29.8132 18.5528 29.36 15.5138C29.083 13.6517 27.6363 12.0107 25.8214 11.8034C23.3854 11.5238 20.9245 11.4687 18.4837 11.2243C14.7827 10.8538 11.4293 15.9043 11.7422 18.8027C12.0531 21.6888 12.1485 24.5976 12.4061 27.4906C12.5892 29.5462 12.8379 31.5997 13.1419 33.6415C13.4017 35.39 14.3537 36.6654 15.9917 37.4208C17.8716 34.2964 19.5006 33.1932 21.5048 33.6188C24.0818 34.1649 24.792 35.2199 25.2611 39.6995ZM110.126 95.5275C110.126 95.0971 110.14 94.801 110.119 94.5056C109.961 91.2145 109.781 87.9242 109.636 84.6318C109.518 81.9716 109.47 79.308 109.346 76.6478C109.111 71.5904 108.814 66.5454 110.043 61.5424C110.914 58.0249 111.176 54.4157 110.997 50.799C110.886 48.6491 110.665 46.4289 109.353 44.646C106.078 40.1905 101.898 37.0097 96.3781 35.6868C92.8202 34.8349 89.2277 34.9988 85.6421 34.8528C81.8078 34.6965 77.9527 34.826 74.1461 34.4259C68.1936 33.8006 62.2556 32.9736 56.3611 31.9578C53.1306 31.4014 49.8221 30.668 46.8645 29.3251C42.6903 27.43 38.4912 25.4701 34.7246 22.7727C34.4379 22.5668 34.0973 22.4353 33.66 22.2039C33.517 22.6309 33.367 22.9001 33.3436 23.1804C33.1322 25.696 32.9049 28.2109 32.7625 30.7307C32.681 32.1851 32.7536 33.6484 32.7446 35.1083C32.7314 37.6081 31.6426 39.6981 30.1842 41.6304C29.094 43.0759 27.3337 43.0008 25.809 43.4498C25.3924 43.5731 24.964 43.6585 24.4922 43.7728C25.3661 48.2503 26.7955 52.334 29.9182 55.6394C31.1314 56.9237 32.3321 58.2397 33.6786 59.3753C34.9429 60.442 35.6172 61.7849 35.8915 63.3026C36.2189 65.1075 36.4801 66.9531 36.4856 68.7814C36.4987 72.2246 36.2749 75.6671 36.212 79.111C36.1609 81.9269 36.2017 84.7455 36.2017 87.5861C37.4508 88.0048 38.6632 88.4104 40.0995 88.8925C40.4353 87.8781 40.9065 87.0448 40.9666 86.1827C41.37 80.3616 43.3832 74.785 43.5228 68.9212C43.5642 67.1679 44.7712 66.4869 46.5377 66.8746C46.984 66.9724 47.4745 66.9297 47.889 67.0908C49.2293 67.6114 50.6069 68.0907 51.836 68.8117C52.2981 69.0831 52.6318 69.9783 52.6194 70.5808C52.5254 75.1624 52.3645 79.7425 52.1544 84.3199C52.066 86.2426 52.5172 88.2341 51.2467 90.143C52.5517 89.8001 53.5624 89.5356 54.7784 89.2161C55.0063 87.9201 55.3186 86.5835 55.4665 85.2296C55.9894 80.438 56.4537 75.6396 56.9463 70.8446C57.0161 70.1587 57.0934 69.4714 57.2109 68.7924C57.5674 66.7245 58.4275 66.0468 60.496 65.664C65.18 64.7963 69.9387 64.1372 74.4846 62.7806C78.4985 61.5817 82.2776 59.5853 86.1395 57.8782C88.2397 56.9485 89.2 57.4285 89.7044 59.6707C89.96 60.8318 89.9116 62.103 90.9548 63.0368C93.0205 64.8762 95.0102 66.7947 97.0206 68.6898C99.0794 70.6256 101.221 72.3927 102.858 74.8263C105.049 78.0808 106.112 81.5316 106.485 85.3239C106.831 88.8718 107.239 92.4135 107.646 96.2099C108.399 96.0027 109.235 95.7733 110.126 95.5275ZM7.17905 15.7803C5.61631 16.0248 4.48882 16.3677 3.371 16.3415C0.977149 16.2851 -0.181432 15.0097 0.0230639 12.6608C0.128766 11.457 0.36297 10.1796 0.8977 9.11496C2.39964 6.12489 3.61695 2.91032 6.68992 0.996593C8.99119 -0.436466 11.7111 -0.567307 13.4846 2.23614C14.2597 3.46261 15.0687 4.6698 15.7824 5.93138C16.3075 6.86242 16.8733 7.47394 18.0851 7.49873C19.6941 7.53109 21.3121 7.73493 22.899 8.01658C24.3132 8.26794 25.2424 7.7976 26.0134 6.64481C26.9502 5.24343 27.9195 3.85238 29.0063 2.56738C29.9465 1.4566 31.0961 0.630237 32.5884 0.192951C35.7519 -0.736024 38.7364 1.91455 40.3337 4.06517C41.0176 4.98519 41.562 6.01471 42.112 7.02632C43.3728 9.3429 42.3683 11.7449 39.8259 12.4466C38.8663 12.711 37.848 12.7648 36.887 13.0244C35.0866 13.5092 33.8257 14.6144 33.0679 16.6266C34.909 17.9419 36.6376 19.3351 38.5188 20.4789C40.4781 21.6716 42.6343 22.5393 44.6157 23.699C48.5474 25.9997 52.8936 26.9914 57.2951 27.6979C62.4483 28.5256 67.6326 29.1971 72.8265 29.7383C76.0183 30.0716 79.2584 30.0345 82.471 30.1632C85.7042 30.292 88.9582 30.1901 92.15 30.6164C95.0931 31.0089 97.9809 31.8745 100.841 32.7146C102.541 33.2146 102.948 33.2456 103.819 31.7017C105.159 29.319 104.724 26.7689 104.302 24.2912C103.867 21.7515 102.389 19.6243 101 17.5157C100.047 16.073 99.3833 14.7308 100.565 13.1036C101.801 11.4088 103.321 10.5597 105.511 10.891C108.385 11.3248 110.451 12.5809 111.66 15.3671C112.841 18.0769 113.705 20.7757 113.74 23.7671C113.774 27.2902 114.154 30.8126 114.14 34.3336C114.126 36.9236 113.691 39.5094 113.484 42.1008C113.429 42.7722 113.394 43.4946 113.581 44.1275C115.045 49.1339 115.508 54.1603 114.341 59.3099C113.318 63.815 113.076 68.4068 113.249 73.0138C113.36 76.0549 113.574 79.0918 113.719 82.1314C113.753 82.8944 113.643 83.6636 113.664 84.428C113.753 87.1709 113.919 89.9124 113.947 92.6552C113.974 94.7797 113.968 96.922 113.726 99.0265C113.525 100.736 112.337 101.563 110.555 101.82C108.537 102.112 106.61 102.07 104.634 101.54C101.594 100.725 100.385 98.3193 102.264 95.8649C103.715 93.9712 103.763 92.2124 103.301 90.0935C102.927 88.3829 102.914 86.5979 102.7 84.8509C102.561 83.7153 102.465 82.5529 102.126 81.4676C101.781 80.3189 101.173 79.2474 100.489 77.7372C99.4939 81.1914 98.9412 84.2827 99.0379 87.4828C99.0932 89.3215 99.2175 91.1629 99.1623 92.9988C99.1277 94.1213 98.8445 95.2417 98.6234 96.3532C97.8773 100.153 92.6129 101.61 89.1102 100.226C87.4383 99.5657 86.6162 98.1684 86.851 96.3553C86.9754 95.3863 87.2863 94.4023 87.7146 93.5188C88.5368 91.8123 88.8546 90.0549 88.8338 88.1722C88.82 86.569 89.1102 84.9624 89.0895 83.3593C89.0411 79.0656 88.744 74.7995 87.383 70.6656C87.079 69.7511 86.8856 68.6403 87.1205 67.7444C87.6248 65.8038 87.2241 64.1276 86.1325 62.2559C78.5607 66.949 70.1134 68.9509 61.1647 69.7063C60.9899 70.8005 60.8061 71.7591 60.6866 72.726C60.0572 77.8192 59.4589 82.9158 58.815 88.0069C58.6706 89.1445 58.442 90.278 58.1539 91.3888C57.3836 94.3644 54.265 96.4035 51.0808 96.0447C50.5495 95.9841 50.0279 95.8271 49.5022 95.71C46.2931 94.9918 45.1393 92.0623 47.1657 89.4386C48.175 88.1322 48.5336 86.8534 48.4742 85.2145C48.3906 82.9309 48.6987 80.6357 48.7754 78.3432C48.8445 76.2738 48.8286 74.2017 48.8479 72.131C48.8548 71.4072 48.5343 70.9954 47.5512 70.9699C47.0993 72.9525 46.566 74.9227 46.213 76.9246C45.5338 80.7707 45.0419 84.6498 44.3151 88.4862C43.5248 92.6545 40.8014 94.8602 36.2755 94.7308C35.0534 94.6956 33.8161 94.5262 32.625 94.2508C29.7213 93.5794 28.5779 91.1905 30.4287 88.9166C31.9873 87.0022 32.3072 85.0085 32.3632 82.7815C32.464 78.7998 32.5953 74.8187 32.6575 70.8363C32.6761 69.614 32.4005 68.3841 32.4557 67.1666C32.5856 64.253 31.1175 62.2228 29.0021 60.4909C24.249 56.5994 21.71 51.4746 20.8603 45.5054C20.6399 43.956 20.0685 43.3369 18.559 42.9093C15.9033 42.1552 13.2759 41.1092 11.5308 38.7871C10.8109 37.8278 10.0966 36.7101 9.86928 35.5677C9.34699 32.9453 9.03402 30.2713 8.80604 27.6042C8.54558 24.5522 8.54489 21.4788 8.26855 18.4288C8.18633 17.5205 7.55695 16.6611 7.17905 15.7803L7.17905 15.7803Z" id="Fill-317" fill="#609ED5" fill-rule="evenodd" stroke="none" />
    <path d="M4.99832 2.42252C4.94739 3.86056 3.5564 5.05129 1.98851 4.9983C0.855478 4.96035 -0.0242801 3.88477 0.000511289 2.56645C0.0259727 1.16178 1.50474 -0.100919 2.99826 0.00637829C4.18623 0.0914306 5.04321 1.12776 4.99832 2.42252" transform="translate(14 20)" id="Fill-318" fill="#609ED5" fill-rule="evenodd" stroke="none" />
    <path d="M2.69258 4.99891C0.775063 4.93794 -0.0867429 4.20211 0.00686706 2.7035C0.100477 1.20348 1.53954 -0.0278757 3.16509 0.000480137C4.51723 0.0238737 5.96967 1.12692 5.99939 2.15127C6.03802 3.49321 4.23343 5.04711 2.69258 4.99891" transform="translate(22 20)" id="Fill-319" fill="#609ED5" fill-rule="evenodd" stroke="none" />
  </g>
</svg>