<?xml version="1.0" encoding="utf-8"?>
<svg width="47px" height="49px" viewBox="0 0 47 49" version="1.1" xmlns:xlink="http://www.w3.org/1999/xlink" xmlns="http://www.w3.org/2000/svg">
  <desc>Created with Lunacy</desc>
  <g id="Dog">
    <path d="M8.40984 43.7455C8.67489 43.5446 8.94952 43.3374 9.23373 43.1616C9.7319 42.8603 9.78938 42.3989 9.78938 42.0818C9.79257 41.5106 9.75106 40.9173 9.71593 40.4433L9.69358 40.1263C9.66803 39.6931 9.63929 39.2411 9.55307 38.808C9.43811 38.2084 9.40298 37.5869 9.36466 36.9874C9.33911 36.5511 9.31357 36.1022 9.25608 35.6596C9.23054 35.4525 9.22415 35.2453 9.21457 35.0068C9.21457 34.944 9.21138 34.8781 9.20818 34.809C9.63291 34.9157 9.67761 35.0068 9.72551 35.3363C9.76703 35.6377 9.80854 35.9359 9.85006 36.2372C9.90754 36.6892 9.96821 37.1349 10.0385 37.5838L10.0896 37.9071C10.2588 38.99 10.4344 40.1075 10.642 41.203C10.7729 41.8715 10.7793 42.5621 10.7825 43.2276L10.7889 43.6168C10.7921 43.8773 10.6963 44.1033 10.4823 44.3262C10.3195 44.4988 10.1311 44.6683 9.88518 44.8629C9.78299 44.9414 9.67761 44.9916 9.60097 44.9948C8.89204 45.023 8.27252 45.0356 7.70091 45.0261C7.47098 45.023 7.31131 45.0073 7.2219 44.8001C7.36879 44.5208 7.63704 44.3073 7.90848 44.119C8.07773 43.9997 8.24378 43.871 8.40984 43.7455ZM7.87973 31.3311C8.02663 31.5383 8.17672 31.7454 8.33 31.9463L8.35555 31.984C8.4769 32.1409 8.51522 32.1943 8.55035 32.3638C8.53757 32.3512 8.5248 32.3387 8.51522 32.3261C8.25336 31.9997 8.00108 31.6701 7.77116 31.3531C7.65939 31.1993 7.58914 31.0298 7.53166 30.8508C7.64981 31.0078 7.76477 31.171 7.87973 31.3311ZM27.9821 45.8015C28.2504 45.6539 28.4675 45.453 28.6591 45.1674L28.6942 45.114L28.6783 45.0544C28.5473 44.6118 28.2056 44.4392 27.9055 44.2822C27.27 43.9558 26.6377 43.6231 26.0054 43.2872C25.1017 42.8007 24.479 42.041 23.869 41.2375C23.703 41.0178 23.5401 40.798 23.3772 40.5783L23.3389 40.5312C23.307 40.4904 23.2751 40.4465 23.2655 40.4151L23.1856 40.1483C22.9461 39.351 22.7162 38.5945 22.9972 37.7878C23.1569 37.3295 23.3389 37.0376 23.6008 36.8116C23.7413 36.6955 23.869 36.5637 24 36.435C24.1405 36.2937 24.2842 36.1493 24.4375 36.0238C25.1049 35.4839 25.7946 35.239 26.5515 35.2704L26.6377 35.2736C26.8389 35.2861 27.0656 35.2955 27.2636 35.2202C27.468 35.1449 27.6372 34.922 27.7043 34.7431C27.7458 34.6207 27.7362 34.4951 27.6724 34.3853C27.5989 34.2597 27.4648 34.1687 27.3115 34.1404L27.0816 34.0933C26.4461 33.9646 25.7914 33.8359 25.1272 34.1436C25.0027 34.2032 24.8717 34.2534 24.7408 34.3036C24.5907 34.3601 24.4343 34.4198 24.2842 34.492C22.8791 35.1825 21.9466 36.3031 21.5187 37.8224C21.4325 38.1205 21.4165 38.4658 21.474 38.7703C21.5889 39.3918 21.7263 39.9976 21.87 40.638C21.9147 40.8263 21.9562 41.0146 21.9977 41.2061C21.9019 41.203 21.8029 41.1998 21.7231 41.1684C20.5128 40.6788 19.2386 40.1043 18.1305 39.238C18.0603 39.1815 17.9996 39.1219 17.9357 39.0591C17.8814 39.0057 17.8271 38.9524 17.7697 38.9021C17.3481 38.5412 16.9234 38.1802 16.4731 37.7972L16.0548 37.4425C16.0516 37.4363 16.0516 37.4268 16.0516 37.4206C16.042 37.3421 16.0293 37.2354 16.0388 37.1349C16.0644 36.887 16.0867 36.6421 16.1123 36.3973C16.2017 35.4996 16.2943 34.5736 16.4731 33.6696C16.62 32.9194 16.6903 32.1441 16.7574 31.3939C16.7829 31.1208 16.8053 30.8477 16.834 30.5746C16.85 30.4302 16.8148 30.2576 16.7446 30.1132C16.6552 29.9311 16.4987 29.8056 16.3135 29.7711C16.1283 29.7334 15.9271 29.7962 15.7706 29.9374C15.381 30.2858 15.3363 30.7786 15.3044 31.1396C15.282 31.3719 15.2692 31.6042 15.2565 31.8365C15.2437 32.0938 15.2309 32.3481 15.2054 32.6055L15.1128 33.4907C15.0042 34.583 14.8892 35.713 14.72 36.8148C14.6593 37.2197 14.6944 37.612 14.7296 37.995C14.7519 38.2555 14.7743 38.5004 14.7679 38.7546C14.7615 38.9681 14.7519 39.1846 14.7359 39.3981C14.7232 39.6335 14.704 39.8658 14.688 40.0981C14.6561 40.5626 14.621 41.0429 14.605 41.5168L14.5986 41.6361C14.5763 42.2859 14.5507 42.9576 14.3942 43.6011C14.3527 43.7737 14.34 43.9495 14.324 44.119C14.308 44.3042 14.2921 44.4768 14.2473 44.6432C14.0685 45.2867 13.8641 45.905 13.6406 46.4826C13.5608 46.6835 13.3947 46.8812 13.2414 46.9503C11.8874 47.5655 10.6292 47.6817 9.38701 47.3018C9.37424 47.2987 9.35189 47.283 9.32315 47.261L9.31995 47.261C9.45088 46.8498 9.60416 46.5234 10.0193 46.3257C10.6452 46.0275 11.1593 45.5943 11.5521 45.0324C12.1078 44.232 12.0822 43.3405 11.996 42.4208C11.9162 41.5074 11.7597 40.5909 11.6128 39.7057C11.4404 38.6699 11.2615 37.5995 11.1945 36.5354C11.1561 35.9139 11.0827 35.3112 10.9709 34.7368C10.642 33.001 9.98098 31.6199 8.95271 30.515C8.83136 30.3863 8.72918 30.2482 8.61741 30.0975C8.52799 29.9782 8.43858 29.8589 8.34278 29.7459C8.17353 29.5482 7.98831 29.5074 7.88293 29.5168C7.76477 29.5199 7.59233 29.5702 7.43585 29.7867C7.37837 29.8589 7.33686 29.9343 7.30812 30.0065C7.23786 29.6675 7.27299 29.3536 7.35283 28.98C7.47737 28.3837 7.70729 27.8312 7.93083 27.3164C8.37471 26.2963 8.84094 25.0752 8.93355 23.7569C8.97187 23.2547 8.83136 22.8278 8.50883 22.4511L8.45774 22.3978C8.36513 22.2879 8.27252 22.178 8.17353 22.0776C7.4614 21.3431 6.74928 20.6086 6.03715 19.8772L5.51663 19.3436L5.54217 18.0315C5.56134 16.9737 5.5805 15.9253 5.61243 14.8801C5.63798 14.0483 5.51343 13.3703 5.21645 12.7519C5.15578 12.6263 5.11426 12.5039 5.08871 12.3941C4.81728 11.1887 4.15944 10.1686 3.08007 9.27713C2.92998 9.15471 2.80544 9.00091 2.67132 8.83768C2.59787 8.74352 2.52442 8.65249 2.44459 8.5646L2.34559 8.45788C2.16038 8.25071 1.96877 8.03726 1.75801 7.84579C1.51531 7.61979 1.38119 7.34043 1.35245 6.99515C1.34606 6.91667 1.35884 6.85389 1.38758 6.81937C1.40035 6.80681 1.41951 6.78798 1.47061 6.78484C1.51531 6.78798 1.61111 6.8382 1.67498 6.87901L1.72288 6.90412C1.72608 6.90726 1.73566 6.92295 1.74843 6.97631C1.91768 7.75162 2.4414 8.2821 2.94914 8.79374C3.06411 8.90988 3.17268 9.0323 3.27806 9.15471C3.35151 9.23632 3.42496 9.32108 3.49841 9.39955C4.19137 10.1529 5.05039 10.5201 6.12337 10.517C6.13934 10.517 6.15531 10.517 6.17127 10.517L6.24153 10.517L6.27985 10.4605C6.46826 10.1874 6.44271 9.90805 6.20959 9.69147C6.09144 9.5816 5.90303 9.43408 5.68268 9.3556C5.12065 9.14844 4.68315 8.78118 4.20095 8.28837C4.14028 8.2256 4.0796 8.16282 4.01893 8.10004C3.81136 7.89601 3.6006 7.6857 3.43454 7.45656C3.22378 7.16778 3.06091 6.85703 2.96511 6.55884C2.73199 5.85886 2.32005 5.51986 1.69095 5.50103C1.67818 5.49475 1.6686 5.48533 1.65263 5.47277C1.64624 5.4665 1.63986 5.46336 1.63347 5.45708C1.61431 5.15888 1.8091 4.98624 2.0518 4.7728C2.07096 4.75397 2.09332 4.73513 2.11248 4.7163C2.55316 4.99566 3.19503 5.28758 3.95187 5.00194C4.54584 4.78222 4.7598 4.27999 4.96737 3.79346C5.00249 3.71813 5.03443 3.64279 5.06955 3.56432C5.93816 3.39168 6.66305 2.94909 7.26022 2.53476C7.58275 2.30876 7.93722 2.26795 8.40984 2.39665C9.42214 2.67601 10.1917 2.98048 10.824 3.36029C11.9577 4.03829 12.7497 4.89208 13.2446 5.96872C13.9631 7.53818 14.0015 9.20494 13.9408 10.63C13.912 11.3174 13.8418 12.0174 13.7747 12.6954C13.7428 13.0093 13.7109 13.3232 13.6821 13.6371L13.6725 13.7093C13.6662 13.7689 13.6566 13.8348 13.663 13.9039C13.6693 13.9918 13.6246 14.0891 13.5767 14.1895C13.4969 14.359 13.3979 14.5725 13.5352 14.8142C13.6119 14.9491 13.7013 15.081 13.7939 15.2097C13.8578 15.307 13.9248 15.4011 13.9887 15.5016C14.7008 16.6567 15.5471 17.7239 16.5019 18.6782C16.6264 18.8006 16.6967 19.0077 16.7669 19.2086L16.8244 19.3813C16.9617 19.7862 17.1022 20.2068 17.4535 20.5458C17.5749 20.6619 17.6739 20.8597 17.6962 21.0386C17.7665 21.5848 17.8144 22.1718 17.6707 22.7776C17.4439 23.7255 17.3162 24.6829 17.2875 25.6277C17.2555 26.833 17.8878 27.7527 19.0726 28.2173C19.5228 28.3931 20.0018 28.415 20.5415 28.2895C21.4389 28.076 22.3713 28.1294 23.2463 28.4433C24.3193 28.8294 25.3284 28.7917 26.3215 28.3272C26.3726 28.3052 26.4237 28.2832 26.4876 28.255L26.51 28.2455C27.5095 28.9832 30.5815 32.9131 31.3703 34.4543C30.7987 34.6458 30.3676 35.0256 29.9492 35.396C29.796 35.5341 29.6395 35.6691 29.4766 35.7978C29.1988 36.0175 29.0679 36.2843 29.0838 36.6139C29.087 36.7112 29.087 36.8116 29.087 36.9089C29.087 37.1412 29.087 37.3829 29.1413 37.6152C29.2627 38.1174 29.2786 38.6134 29.2595 39.2035C29.2371 40.0008 29.6171 40.5501 30.3867 40.8326C30.4921 40.8702 30.5943 40.9267 30.7029 40.9832C30.7667 41.0178 30.8274 41.0523 30.8913 41.0837C31.4022 41.3317 31.9611 41.5702 32.5774 41.6361C32.7882 41.6612 33.0021 41.7146 33.2288 41.7711C33.3023 41.7868 33.3757 41.8056 33.4492 41.8245C33.446 41.8621 33.4428 41.8998 33.4396 41.9343C33.4268 42.0913 33.4141 42.2419 33.4173 42.3926C33.4236 42.5652 33.3566 42.7222 33.2863 42.8917C33.2033 43.0863 33.1107 43.3092 33.1299 43.5728C33.149 43.8114 33.066 44.0656 32.9798 44.3356C32.9478 44.436 32.9159 44.5333 32.8903 44.6338C32.7211 45.2521 32.5327 45.745 32.2996 46.1844C32.1367 46.4889 31.9706 46.6615 31.7503 46.762C31.3352 46.9534 30.8913 47.1418 30.3835 47.1794C29.9077 47.214 29.4287 47.2736 28.9657 47.3332C28.6719 47.3709 28.3749 47.4086 28.0747 47.4368C26.9602 47.5561 25.8234 47.4776 24.6961 47.4054C24.6546 47.4023 24.6035 47.3803 24.5396 47.3521C24.546 47.3395 24.5524 47.3301 24.5588 47.3175C24.6163 47.2202 24.6642 47.1449 24.7217 47.0978C25.0729 46.8153 25.4402 46.6395 25.8457 46.5579C26.6409 46.401 27.3402 46.153 27.9821 45.8015ZM46.3888 45.9427L46.3026 46.0463L46.3696 45.927C46.3058 45.8768 46.2355 45.8203 46.1525 45.7858C46.0279 45.7293 45.9002 45.6696 45.7757 45.6131C45.1562 45.3243 44.5175 45.0293 43.7862 44.9822C43.3551 44.9508 42.9591 44.8786 42.6014 44.7625C41.8127 44.5082 40.976 44.21 40.0563 43.8522C39.1494 43.5006 38.3223 43.0486 37.4122 42.537C36.7831 42.1823 36.2147 41.7397 35.6654 41.3065C35.4993 41.1778 35.3333 41.0491 35.1672 40.9205C34.9788 40.7761 34.915 40.6034 34.9469 40.3209C34.9916 39.8846 34.9629 39.442 34.9341 38.9994C34.8734 38.1017 34.5094 37.2856 34.1549 36.4977L34.1134 36.4036C33.7845 35.6659 33.4204 34.9816 33.0372 34.3633C32.8233 34.0211 32.5774 33.6916 32.3411 33.3745C32.0952 33.0449 31.8365 32.7028 31.6226 32.3481C31.2426 31.7266 30.8019 31.0894 30.275 30.3988C29.6331 29.5607 28.9082 28.7635 28.2088 27.9944L28.0651 27.8375C27.6692 27.4012 27.2253 27.012 26.7974 26.6353C26.4333 26.3151 26.0661 26.0012 25.6956 25.6873C25.3316 25.3766 24.9707 25.069 24.6099 24.7519C23.885 24.1116 23.1984 23.4022 22.5342 22.7148C21.6975 21.8453 20.8321 20.9476 19.8645 20.1723C19.7623 20.0875 19.6601 19.9777 19.558 19.8333C19.0917 19.1741 18.4977 18.6185 17.9229 18.0818C17.7792 17.9468 17.6323 17.8118 17.4918 17.6737C16.719 16.9329 16.0325 16.1513 15.4545 15.3478C15.0297 14.7577 14.902 14.2492 15.0457 13.703C15.1926 13.1348 15.2022 12.5447 15.2086 11.9766L15.2149 11.6439C15.2245 11.082 15.2692 10.5139 15.3107 9.96141C15.3267 9.73227 15.3427 9.50627 15.3587 9.27713C15.5918 9.10763 15.7706 9.0323 16.0069 9.11077C16.2304 9.37444 16.3422 9.69774 16.4572 10.0367C16.4923 10.1466 16.5274 10.2533 16.5689 10.3601C16.7765 10.9094 17.0639 11.512 17.8271 11.7192C18.188 11.8165 18.5169 11.7883 18.7788 11.6344C19.0215 11.4963 19.1875 11.2546 19.2674 10.9376C19.3408 10.6331 19.3536 10.2847 19.3057 9.92061C19.2418 9.42466 19.1364 8.90674 18.9927 8.38568C18.8203 7.75162 18.6159 7.09559 18.3828 6.43642C18.1113 5.6768 17.5302 5.06786 16.6935 4.68177C16.0388 4.3773 15.3171 4.16699 14.605 4.0791C13.8705 3.98493 13.2542 3.68046 12.6251 3.09976C12.657 3.07779 12.689 3.05896 12.7209 3.04012C12.8902 2.93968 13.0498 2.84551 13.1999 2.73251C13.7268 2.34015 13.8961 1.72178 13.6087 1.26036C13.2414 0.673386 12.7688 0.299856 12.2036 0.14605C11.5457 -0.0328678 10.856 -0.0108955 10.2588 0.0236325C10.1534 0.0299103 9.89796 0.0612994 9.72871 0.196272C8.46412 0.764415 8.08411 0.984138 7.92125 1.11283C7.33367 1.17247 6.82272 1.42359 6.24472 1.78142C5.58369 2.18948 4.91946 2.32445 4.20095 2.19262C4.01574 2.15809 3.82733 2.15495 3.6453 2.15181C3.52076 2.15181 3.39941 2.15181 3.27806 2.13926C2.81183 2.09217 2.38391 2.2554 1.96877 2.6352C1.63986 2.9334 1.30136 3.24415 1.12253 3.69615C1.02034 3.94413 0.902183 4.14188 0.768061 4.28313C0.538137 4.52796 0.426368 4.81047 0.320986 5.08669L0.285859 5.18086C0.14535 5.53869 0.122996 5.90594 0.103836 6.26064C0.0878689 6.53373 0.0719019 6.79426 0.00803416 7.04537C-0.0143196 7.13953 0.0144209 7.2337 0.039968 7.30904L0.055935 7.35298C0.257118 8.02471 0.471075 8.61168 1.08421 8.99463C1.19278 9.06369 1.2822 9.15157 1.32052 9.23005C1.52489 9.64438 1.86339 9.91433 2.1955 10.1749L2.32324 10.2753C3.73791 11.4147 4.10515 13.0595 4.26482 14.3622C4.38298 15.3164 4.32549 16.3114 4.26482 17.2719L4.25524 17.4383C4.18818 18.5683 4.07002 19.7328 3.89758 20.9978C3.74749 22.0996 3.70278 23.2327 3.75707 24.369C3.79859 25.1726 3.89119 26.1205 4.2744 27.0371C4.38936 27.3133 4.48197 27.5456 4.56181 27.7873C5.09829 29.4164 5.78807 30.8414 6.67583 32.1378C6.79398 32.3136 6.92491 32.4831 7.05584 32.6526C7.19316 32.8315 7.33047 33.0073 7.45501 33.1925C7.57636 33.3745 7.71049 33.588 7.73923 33.792C7.96915 35.3552 8.09689 36.7583 8.12882 38.0829C8.13521 38.3999 8.18949 38.7169 8.23739 38.99C8.43538 40.0886 8.49606 41.09 8.429 42.0473C8.30126 42.1321 8.17672 42.2137 8.05537 42.2953C7.73923 42.4993 7.44224 42.6971 7.14845 42.9074C6.66305 43.2589 6.17447 43.6701 5.90303 44.2854C5.56453 45.0544 5.82319 45.8203 6.5449 46.1938C6.79079 46.3225 7.06861 46.3853 7.35921 46.4449C7.44224 46.4606 7.52846 46.4732 7.61468 46.4826C7.78393 46.5046 7.9436 46.5265 8.09369 46.5987C8.08092 46.6364 8.07134 46.6741 8.05857 46.7117C8.01066 46.8655 7.96596 47.0099 7.93402 47.1606C7.80629 47.7978 8.10966 48.3848 8.67808 48.5857C9.37424 48.8305 10.2971 49.091 11.2647 48.9152C11.929 48.7928 12.5932 48.6139 13.235 48.4381L13.5991 48.3377C14.0142 48.2278 14.3559 47.9516 14.5635 47.5624C15.0138 46.718 15.3331 45.836 15.5119 44.9383C15.5662 44.6683 15.6045 44.3889 15.6205 44.1127C15.6397 43.7706 15.6812 43.4222 15.7195 43.0832C15.777 42.5684 15.8377 42.0379 15.8345 41.5012L15.8313 41.2155C15.8185 40.5846 15.8089 39.9348 16.0804 39.3008L16.2432 39.4389C16.4476 39.6115 16.6424 39.7779 16.834 39.9443C16.9266 40.0259 17.016 40.1075 17.1054 40.1922C17.2779 40.3554 17.4535 40.5218 17.6515 40.6599C19.4174 41.9029 21.1866 42.6594 23.0547 42.9796C23.2495 43.0141 23.5018 43.0989 23.6231 43.2401C24.1788 43.871 24.8622 44.2948 25.635 44.7436C25.7531 44.8096 25.8649 44.888 26.0054 44.9885C26.0214 45.001 26.0405 45.0136 26.0565 45.0261L26.0086 45.0481C25.8841 45.1046 25.7851 45.1486 25.6861 45.1862C25.5104 45.2584 25.3316 45.3181 25.1528 45.3777C24.7376 45.5158 24.3065 45.6571 23.9265 45.9364C23.3389 46.3602 22.9366 46.9158 22.6204 47.7413L22.5949 47.8041L22.63 47.8574C22.9685 48.413 23.093 48.5072 23.7317 48.6924C24.5492 48.9309 25.3699 49 26.2002 49C26.6281 49 27.0592 48.9812 27.4935 48.9592C28.0588 48.9309 28.6304 48.8619 29.186 48.796C29.582 48.7489 29.978 48.7049 30.3772 48.6704C31.1659 48.6014 31.8238 48.413 32.3922 48.0834C33.0149 47.7287 33.6152 47.2799 33.7877 46.4324C33.8707 46.04 34.0144 45.6382 34.1422 45.2867C34.1773 45.1862 34.2411 45.0921 34.3082 44.9916C34.3178 44.9759 34.3306 44.9602 34.3401 44.9445L34.8351 45.1297C35.2279 45.2804 35.6079 45.4216 35.9879 45.5692C36.1987 45.6508 36.4127 45.7324 36.6266 45.814C37.2014 46.0306 37.7954 46.2566 38.367 46.5046C39.2292 46.875 40.1649 47.2359 41.1612 47.3521C41.9947 47.4494 42.7451 47.5498 43.4637 47.8292C44.1055 48.0772 44.7474 48.2247 45.4244 48.278C46.0567 48.3346 46.7944 47.8669 46.9476 47.4682C47.1169 47.0131 46.8614 46.3162 46.3888 45.9427L46.3888 45.9427Z" id="Fill-236" fill="#0E498D" fill-rule="evenodd" stroke="none" />
    <path d="M1.45176 0.0652993C1.18114 -0.0307732 0.910521 -0.0208347 0.672901 0.0951148C0.385778 0.237567 0.16796 0.515846 0.0425499 0.903449C-0.0201552 1.10222 -0.0135547 1.2778 0.0623515 1.42688C0.16796 1.62896 0.395679 1.77804 0.77521 1.8973L0.831314 1.91718C0.870917 1.93043 0.910521 1.94368 0.946824 1.95362C1.08213 1.98344 1.20094 2 1.30325 2C1.46167 2 1.58708 1.96356 1.68938 1.89068C1.8544 1.77141 1.95011 1.55939 1.98641 1.22148C1.98971 1.18173 1.99301 1.14197 1.99631 1.10222L1.99961 1.03928C2.00951 0.519159 1.8313 0.201126 1.45176 0.0652993" transform="translate(8 4)" id="Fill-237" fill="#0E498D" fill-rule="evenodd" stroke="none" />
  </g>
</svg>