<?xml version="1.0" encoding="utf-8"?>
<svg width="27px" height="25px" viewBox="0 0 27 25" version="1.1" xmlns:xlink="http://www.w3.org/1999/xlink" xmlns="http://www.w3.org/2000/svg">
  <desc>Created with Lunacy</desc>
  <g id="Dog-Profile">
    <path d="M12.7848 21.6926C12.8143 21.0265 12.7768 20.4873 12.8759 19.9725C13.1008 18.8184 14.0783 18.2728 15.0316 17.7308C15.3021 17.5776 15.5726 17.6235 15.7359 17.876C15.9046 18.1393 15.7707 18.348 15.519 18.5238C15.2566 18.7078 15.0022 18.9106 14.7772 19.1362C14.0194 19.8973 13.9819 20.5785 14.5442 21.4979C14.7478 21.8292 14.9245 22.2247 14.9406 22.598C14.9807 23.4565 15.2352 23.6548 16.1296 23.537C17.5409 23.3507 18.9656 23.2325 20.3849 23.0862C20.7304 23.0506 21.0758 23.0177 21.3677 22.9891C21.9783 21.6539 21.5712 20.6835 20.5831 19.7776C19.702 18.9731 18.9334 18.0582 18.1327 17.1786C16.6893 15.5936 15.2566 13.9973 13.8158 12.4103C13.6926 12.2755 13.5293 12.1748 13.307 11.9957C13.1785 12.7331 12.7232 13.1205 12.1742 13.4342C11.0629 14.0692 9.42394 13.8488 8.97939 12.4019C8.808 11.8377 8.71695 11.2416 8.66607 10.654C8.55359 9.38318 8.53217 8.10471 8.39827 6.83618C8.29115 5.83956 8.25902 4.91454 9.34628 4.37328C8.82139 3.46839 8.02068 3.14706 7.06196 3.30964C5.98541 3.49209 5.02402 3.21178 4.20456 2.65065C3.44133 2.12851 2.78791 2.03423 2.03807 2.5556C1.9738 2.59969 1.91488 2.65065 1.8158 2.7294C2.39156 3.30276 2.94323 3.85853 3.50293 4.40463C4.07334 4.95938 4.625 5.54166 4.74283 6.33239C4.83924 6.96971 4.84727 7.62768 4.80978 8.27239C4.73747 9.54576 4.49913 10.8176 4.52056 12.0874C4.55002 13.9408 4.97581 15.6848 6.62545 16.9528C6.93342 17.1901 7.16908 17.6679 7.19854 18.0511C7.30833 19.4871 7.61095 20.921 7.38867 22.3681C7.31905 22.8118 7.46098 23.0715 7.92963 23.1678C8.41166 22.851 8.39024 22.3554 8.39559 21.9275C8.41166 20.9658 8.36078 20.0021 8.30722 19.0411C8.27508 18.5159 8.44112 18.2407 8.9178 18.1693C9.2338 18.1214 9.55784 18.3554 9.64621 18.7781C9.71584 19.1076 9.65424 19.4618 9.72119 19.7923C9.77207 20.0518 9.85777 20.4055 10.0559 20.5219C10.9075 21.0257 11.8234 21.4179 12.7848 21.6926ZM23.9065 17.6752C23.4137 16.5489 22.9558 15.4172 22.0801 14.4897C21.8712 14.2708 21.5873 13.9818 21.8605 13.6632C22.0988 13.3863 22.4416 13.3177 22.8353 13.4212C23.5985 13.6209 24.2974 13.9028 24.8277 14.4942C25.7757 15.5536 26.729 16.5981 26.9379 18.0641C27.1441 19.5202 26.8254 20.8618 26.1479 22.1602C25.4677 23.4573 24.2171 23.7743 22.8781 24.0905C20.8643 24.5655 18.7862 24.3808 16.7723 24.7739C16.1617 24.8927 15.5324 24.9314 14.9111 24.9852C14.6755 25.0053 14.4157 25.0163 14.2015 24.9406C13.7649 24.7864 13.315 24.6211 12.9401 24.3665C12.5572 24.1053 12.592 24.0564 12.7982 23.0946C11.8154 22.6907 10.8218 22.2825 9.7694 21.8516C9.62211 22.4163 9.5016 22.931 9.34895 23.4379C8.95797 24.7556 6.91735 25.118 5.91043 24.4085C5.45249 24.0844 5.2329 23.3484 5.60246 22.891C6.11663 22.2494 6.19697 21.5542 6.16216 20.8071C6.13002 20.0999 6.09789 19.3925 6.05236 18.6861C6.01487 18.1319 5.69351 17.7272 5.22487 17.4372C4.64374 17.0772 4.33578 16.5525 4.06798 15.9659C3.0316 13.702 2.89502 11.3739 3.37438 8.97061C3.51364 8.28105 3.55381 7.55199 3.48418 6.8553C3.44133 6.43916 3.1655 5.99424 2.87092 5.66245C2.29784 5.01366 1.62834 4.44005 1.00973 3.82541C0.723183 3.54051 0.399148 3.26581 0.200977 2.92892C-0.243567 2.17285 0.125994 1.48508 0.56786 0.864573C1.19986 -0.0242629 1.84793 -0.283677 3.00482 0.350078C3.77876 0.773345 4.4911 1.29294 5.257 1.72716C5.77653 2.02149 6.35765 2.16037 6.97894 2.07118C8.82407 1.80565 10.1175 2.78062 10.8299 4.3399C10.9638 4.63728 11.1218 4.85975 11.3735 5.07762C11.9921 5.61709 12.5304 6.246 12.758 7.02654C13.0446 8.00584 13.2293 9.01088 13.4811 9.99986C13.54 10.2315 13.6364 10.4856 13.7971 10.6578C16.309 13.3149 18.829 15.9626 21.357 18.6059C21.981 19.2595 22.6023 19.9096 22.8513 20.8509C24.1341 20.288 24.3108 18.6038 23.9065 17.6752Z" id="Fill-381" fill="#0E498D" fill-rule="evenodd" stroke="none" />
    <path d="M0.00172322 0.405261C0.0272708 0.142361 0.231652 -0.0175684 0.51815 0.00154155C0.77545 0.0187961 1.00538 0.278171 0.999904 0.543855C0.99443 0.786346 0.753552 1.00917 0.507201 0.999709C0.238951 0.989134 -0.0238244 0.67985 0.00172322 0.405261Z" transform="translate(5 4)" id="Fill-382" fill="#0E498D" fill-rule="evenodd" stroke="none" />
  </g>
</svg>