<?xml version="1.0" encoding="utf-8"?>
<svg width="61px" height="57px" viewBox="0 0 61 57" version="1.1" xmlns:xlink="http://www.w3.org/1999/xlink" xmlns="http://www.w3.org/2000/svg">
  <desc>Created with Lunacy</desc>
  <g id="D2" transform="matrix(-1 0 0 1 61 0)">
    <path d="M46.2351 34.1657C47.0839 34.392 47.7638 34.5763 48.4476 34.7542C49.0912 34.9219 49.6222 35.3019 49.8917 35.8766C50.3423 36.8419 50.9135 37.7562 51.0664 38.8604C51.2836 40.4 51.5974 41.9254 51.8669 43.4424C52.4984 43.4614 52.5346 43.176 52.5065 42.7476C52.3657 40.7302 52.2732 38.7097 52.1324 36.6931C52.0278 35.238 51.4284 34.0153 50.2498 33.1309C50.0124 32.9547 49.6906 32.8221 49.405 32.806C48.6045 32.7623 47.804 32.791 47.0115 32.791C46.742 33.2667 46.5248 33.6503 46.2351 34.1657ZM39.1231 9.68626C38.6926 10.6628 38.2284 11.6268 37.8354 12.6187C37.1391 14.3729 36.5252 16.1603 35.804 17.9036C35.0984 19.6097 33.7983 20.8567 32.433 22.0434C30.4015 23.8097 28.3761 25.5833 26.3776 27.3873C25.3776 28.2907 24.489 29.2902 23.7685 30.4588C22.8964 31.8735 21.8654 33.1875 20.9559 34.5804C20.0737 35.9312 19.2145 37.2913 18.7587 38.881C18.3271 40.3871 17.6959 41.8361 17.2739 43.3442C16.961 44.461 16.8306 45.6303 16.644 46.7803C16.5941 47.0879 16.6187 47.4116 16.6396 47.7257C16.7273 49.0183 17.311 50.2491 17.1183 51.5777C17.5946 53.5134 18.4852 54.418 20.9008 54.4483C22.1124 54.4641 23.3128 54.4216 24.5095 54.6496C24.7698 54.6993 25.051 54.6932 25.3153 54.6597C27.4131 54.3929 29.5121 54.4499 31.6135 54.595C31.7849 54.6067 31.9599 54.559 32.1916 54.5328C32.2624 54.2256 32.3292 53.9362 32.3915 53.6682C32.27 53.5578 32.2141 53.4709 32.1385 53.4455C31.8428 53.346 31.5238 53.3036 31.2443 53.1739C30.1891 52.6832 29.7832 52.0518 30.0226 50.9164C30.2434 49.8683 30.6553 48.8607 30.9904 47.8376C31.0741 47.5814 31.19 47.3356 31.2849 47.0826C32.0054 45.1578 31.4225 43.4715 30.3295 41.8854C29.8323 41.1639 29.0205 40.9707 28.2603 40.7318C27.294 40.4287 26.8901 40.0629 27.0221 39.476C27.1371 38.9623 27.7478 38.5783 28.5615 38.7137C30.4478 39.027 32.0271 39.8002 32.7785 41.7646C33.2645 43.0362 33.7794 44.2977 33.5521 45.6845C33.4008 46.6069 33.1285 47.5106 32.8771 48.4136C32.6381 49.2725 32.3565 50.1193 32.1031 50.9399C32.978 51.4653 33.7745 51.8691 34.4849 52.3921C35.129 52.8663 35.7078 53.4277 35.7396 54.3569C35.783 55.6265 35.0372 56.5533 33.7685 56.5946C32.5621 56.6338 31.3521 56.5542 30.1449 56.5829C28.7164 56.6168 27.2896 56.7166 25.8615 56.7753C25.419 56.7934 24.9737 56.7886 24.5316 56.7627C22.9741 56.6706 21.4185 56.5323 19.8601 56.4725C18.278 56.4119 17.0809 55.6322 15.9392 54.4867C15.7409 54.6011 15.5176 54.7256 15.2984 54.8565C13.0224 56.2167 10.5838 56.4066 8.04393 55.8792C5.90991 55.4361 3.95368 54.6071 2.29514 53.1565C1.82247 52.743 1.36912 52.3028 0.947946 51.8372C0.71262 51.5765 0.498212 51.2612 0.383968 50.9322C-0.167138 49.3429 -0.124497 47.756 0.508671 46.1922C0.542059 46.1097 0.589929 46.0305 0.642223 45.9577C0.984552 45.4804 1.32165 44.9408 1.98901 44.9727C2.66402 45.005 2.95968 45.5357 3.1765 46.1089C3.25535 46.3183 3.38287 46.5099 3.45568 46.7208C3.95328 48.165 4.88372 49.1945 6.30252 49.7693C6.46785 49.8364 6.64927 49.9023 6.77559 50.0203C7.62678 50.8186 8.6413 50.7859 9.68518 50.627C10.2608 50.5393 10.8381 50.4621 11.4125 50.3699C12.5984 50.18 13.5654 49.5272 14.4826 48.9488C14.6443 47.3959 14.8016 45.9266 14.9488 44.4565C15.0888 43.0604 15.432 41.7157 15.9203 40.404C16.3439 39.2674 16.6854 38.0941 17.1899 36.9955C17.6569 35.9781 18.2559 35.0149 18.8601 34.0691C20.1417 32.0626 21.4547 30.0764 22.7782 28.0979C23.0243 27.7296 23.3602 27.4136 23.6889 27.1116C26.3998 24.6214 29.1094 22.1299 31.8408 19.6619C32.76 18.8312 33.4688 17.887 33.8485 16.6946C33.9845 16.2682 34.2025 15.8685 34.3791 15.455C35.0493 13.8859 35.7251 12.3196 36.3848 10.7465C37.1334 8.96316 37.9525 7.22309 39.0909 5.64389C39.3041 5.34802 39.3845 4.87874 39.3604 4.4996C39.2719 3.01943 39.9397 2.11403 41.2993 1.63385C42.6067 1.17346 43.898 0.656497 45.2053 0.19652C45.8932 -0.0468068 46.5932 -0.114308 47.281 0.287464C47.7638 0.567169 48.2988 0.561106 48.8499 0.460461C50.9457 0.079707 52.4864 0.941051 53.6771 2.64515C54.3408 3.60269 55.077 4.51456 55.8212 5.4135C56.0062 5.63702 56.3361 5.75181 56.6136 5.88277C57.5067 6.30192 58.4359 6.64953 59.2967 7.12729C60.9098 8.02461 61.4368 9.57228 60.6202 11.1228C60.2702 11.7824 59.7795 12.4433 59.1881 12.8806C57.6877 13.9938 55.974 14.6316 54.0753 14.6648C53.7616 14.67 53.4478 14.6741 53.134 14.6838C51.4043 14.7359 50.3141 15.5431 49.9802 17.2415C49.6182 19.0923 49.2642 20.9658 49.1677 22.8433C49.0591 24.8865 48.5562 26.8364 48.1942 28.821C48.0896 29.3852 47.9528 29.9434 47.808 30.6156C48.3551 30.6791 48.7976 30.8201 49.2119 30.7631C50.817 30.5433 51.8427 31.4438 52.7277 32.559C53.8581 33.9931 54.188 35.7036 54.2483 37.4975C54.2966 38.936 54.4293 40.3713 54.4897 41.8094C54.5138 42.4222 54.731 42.9311 55.0327 43.4493C55.62 44.4557 55.4149 45.1465 54.5178 45.9011C53.7937 46.5086 53.0375 46.6889 52.1485 46.4108C51.8106 46.3041 51.4566 46.2366 51.1187 46.1247C50.475 45.9116 50.0366 45.4598 49.9038 44.8021C49.6343 43.44 49.4211 42.0661 49.1717 40.6991C49.0108 39.8147 48.8378 38.9316 48.6447 38.0528C48.3913 36.8637 47.4218 36.3685 46.2432 36.3018C44.3686 36.1955 43.2463 37.6668 42.8561 39.1793C42.486 40.6057 42.1642 42.0774 42.6147 43.5782C42.7193 43.9129 42.663 44.2944 42.6831 44.6546C42.7676 46.2714 42.8279 47.8898 42.9567 49.5033C42.9969 49.9847 43.1095 50.5276 43.379 50.9104C44.0106 51.8149 44.0669 52.8537 44.2158 53.8666C44.4089 55.1471 43.6606 56.2215 42.4377 56.69C41.4321 57.0756 40.4023 57.0347 39.3845 56.9216C38.364 56.808 37.4195 55.7926 37.3032 54.7494C37.1041 52.9608 36.9685 51.1654 36.7686 49.3772C36.4838 46.832 36.1652 44.2904 35.8579 41.748C35.8418 41.615 35.779 41.4873 35.7678 41.3543C35.7239 40.8333 36.0369 40.3135 36.491 40.1999C36.9955 40.0738 37.2244 40.4412 37.4142 40.8074C38.0028 41.9444 38.2441 43.1772 38.3447 44.4404C38.5414 46.9056 38.7224 49.3724 38.9123 51.838C38.9219 51.9726 38.934 52.1108 38.9742 52.2385C39.1392 52.7777 38.9984 53.5328 39.6339 53.7603C40.0523 53.9095 40.5873 53.707 41.07 53.6864C41.5085 53.667 41.8343 53.4879 42.0154 53.112C42.0234 53.0356 42.0475 52.9794 42.0274 52.9487C40.7925 50.8364 40.7844 48.4844 40.6879 46.1432C40.6436 45.0681 40.5069 43.9966 40.3983 42.925C40.1569 40.5625 40.5672 38.3778 42.0516 36.4554C42.7917 35.4971 43.5078 34.5157 44.1876 33.5141C45.4829 31.6124 46.034 29.422 46.4282 27.2046C46.7179 25.5704 46.8064 23.9007 47.0276 22.2532C47.2247 20.7831 47.5586 19.3288 47.6954 17.8551C47.7959 16.7714 48.2425 15.8745 48.7694 14.9845C49.7469 13.3313 51.2232 12.5625 53.1139 12.5375C54.6626 12.5165 56.143 12.2194 57.4986 11.4401C57.6796 11.3362 57.8244 11.1729 58.0819 10.9575C57.5388 10.7174 57.1084 10.4894 56.6539 10.3354C56.0464 10.1313 55.801 9.72709 55.8212 9.1119C55.8292 8.75216 55.8212 8.39202 55.8212 7.99025C55.4672 7.77967 55.1091 7.5998 54.7873 7.36456C54.4655 7.12972 54.1397 6.87669 53.8983 6.56546C53.1139 5.54001 52.3737 4.47657 51.5974 3.44344C51.1066 2.7947 50.4509 2.44224 49.6222 2.4863C49.3527 2.50085 49.0872 2.56229 48.8177 2.55946C47.5827 2.54693 47.0598 3.41636 46.9914 4.45716C46.8747 6.14105 47.1764 7.77684 47.6753 9.37382C48.3108 11.4292 48.0534 13.3697 46.9954 15.2092C46.4162 16.2128 45.6438 16.9566 44.433 17.2112C43.0009 17.5135 41.8947 17.037 41.243 15.6898C41.1465 15.4885 41.0177 15.2884 40.9815 15.0746C40.7965 13.955 40.4063 12.9231 39.8834 11.913C39.65 11.4611 39.7144 10.8584 39.6179 10.3289C39.5776 10.1131 39.469 9.91059 39.3886 9.70203C39.3001 9.69677 39.2116 9.69152 39.1231 9.68626L39.1231 9.68626Z" id="Fill-240" fill="#FFF0DF" fill-rule="evenodd" stroke="none" />
    <path d="M0.00056116 1.13992C0.0112453 0.49147 0.484908 -0.0219967 1.04404 0.000726077C1.5462 0.021414 2.03054 0.585753 1.99849 1.1155C1.97 1.61574 1.42511 2.02678 0.833923 1.99864C0.242735 1.97049 -0.0136843 1.70799 0.00056116 1.13992" transform="translate(49 5)" id="Fill-241" fill="#FFF0DF" fill-rule="evenodd" stroke="none" />
  </g>
</svg>