<?xml version="1.0" encoding="utf-8"?>
<svg width="62px" height="45px" viewBox="0 0 62 45" version="1.1" xmlns:xlink="http://www.w3.org/1999/xlink" xmlns="http://www.w3.org/2000/svg">
  <desc>Created with Lunacy</desc>
  <path d="M44.1637 7.86149C41.2699 6.79619 39.4302 7.56546 37.4811 10.4921C38.9628 11.2366 41.1704 11.4801 40.7826 13.8275C40.4644 15.769 38.6446 15.6235 37.0933 15.6552C41.6577 16.2591 46.0829 15.8235 50.6971 14.9592C50.6374 13.9325 50.5976 13.1236 50.538 12.0217C49.2154 12.3375 48.1911 12.6533 47.137 12.8157C44.8101 13.1771 43.4377 11.6821 43.9051 9.34656C43.9847 8.92282 44.0543 8.49611 44.1637 7.86149ZM12.4612 7.7021C10.6116 8.46642 9.67682 10.0168 8.65255 11.9732C9.67682 12.289 10.4624 12.6306 11.2778 12.7672C16.2699 13.6008 21.2619 14.4552 26.2739 15.1611C28.5909 15.4869 30.9079 16.3839 33.3542 15.7017C32.3797 13.084 32.3797 13.084 34.6669 11.1534C32.5984 9.82279 33.7321 7.9605 34.1299 6.10514C32.2206 5.89129 30.9179 6.56156 29.5953 7.43478C27.3677 8.91293 26.4728 8.4585 25.8463 5.70219C25.7965 5.49131 25.707 5.28934 25.6275 5.08341C24.1458 4.22009 22.674 4.27553 21.2818 5.26261C20.0288 6.15069 18.7361 7.0051 17.6124 8.03871C15.4843 9.99307 15.1362 10.0446 13.038 8.07634C12.8789 7.92981 12.6701 7.83773 12.4612 7.7021ZM8.38405 18.5165C8.10561 19.6175 7.83712 20.5531 7.62829 21.5025C7.1609 23.648 6.80291 25.8241 6.24603 27.9458C5.48032 30.8773 5.5897 31.5397 8.06584 33.2485C9.05032 33.9227 10.2039 34.4088 11.3475 34.7662C13.1374 35.3256 14.9771 35.7325 16.8069 36.1533C21.2222 37.1711 25.6275 38.1948 30.2118 38.2413C33.3045 38.272 36.427 38.37 39.4899 38.7868C45.4167 39.5967 50.5479 37.8364 55.5599 34.4078C54.5455 29.8219 53.3622 25.3013 51.4031 20.8303C49.3944 21.0689 47.5447 21.3659 45.6852 21.4877C43.6963 21.6174 41.6975 21.5976 39.7086 21.6134C32.9465 21.6669 26.2142 21.6391 19.6112 19.7838C16.8566 19.0125 13.9529 18.7739 11.1088 18.3819C10.2735 18.267 9.38843 18.4571 8.38405 18.5165ZM24.4839 0.185662C28.3622 0.216354 32.0615 1.4262 35.8403 0.882658C37.6203 0.626235 38.5153 2.41625 40.0965 2.43308C41.5185 2.44694 43.0101 2.07171 44.3327 2.41328C46.0233 2.85484 47.6939 3.80034 48.4198 5.54877C48.9668 6.86356 49.8618 7.2972 51.1446 7.6061C55.182 8.57932 55.9676 9.41492 55.5996 13.5078C55.3908 15.8404 55.9875 17.7917 56.7631 19.8609C57.857 22.7499 58.7321 25.7161 59.7365 28.6358C60.2735 30.1951 60.8701 31.7376 61.5066 33.2593C62.7297 36.174 61.6458 38.2502 58.6227 39.3026C56.7731 39.9461 55.0328 40.9381 53.3323 41.9223C50.5976 43.4964 47.6939 44.2697 44.5615 44.7083C39.3407 45.4429 34.2094 44.5974 29.0384 44.2736C22.5249 43.8638 16.1804 42.4549 9.97514 40.4857C7.11118 39.5768 4.41628 38.369 2.27825 36.1097C0.209832 33.9088 -0.545936 31.4673 0.408718 28.5536C2.24842 22.8816 3.58095 17.1106 3.95884 11.1376C4.14778 8.26646 6.05709 6.2527 8.05589 4.60624C9.88565 3.09344 12.143 2.00835 14.7782 2.18458C15.713 2.24596 16.8069 1.98558 17.6024 1.49946C19.8001 0.15002 22.0973 -0.290552 24.4839 0.185662L24.4839 0.185662Z" id="Fill-296" fill="#FEF0DF" fill-rule="evenodd" stroke="none" />
</svg>