<?xml version="1.0" encoding="utf-8"?>
<svg width="13px" height="13px" viewBox="0 0 13 13" version="1.1" xmlns:xlink="http://www.w3.org/1999/xlink" xmlns="http://www.w3.org/2000/svg">
  <desc>Created with Lunacy</desc>
  <g id="g62" transform="matrix(1 2.1456883E-07 2.1456883E-07 -1 0 12.835449)">
    <path d="M6.41772 12.8355C2.87333 12.8355 0 9.96216 0 6.41775C0 3.69887 1.6916 1.37459 4.07894 0.439487C4.02286 0.947259 3.97215 1.72817 4.10119 2.2825C4.21783 2.78338 4.85375 5.47254 4.85375 5.47254C4.85375 5.47254 4.66178 5.857 4.66178 6.42538C4.66178 7.31777 5.17902 7.98399 5.82305 7.98399C6.37059 7.98399 6.63505 7.57292 6.63505 7.07998C6.63505 6.52933 6.28447 5.70607 6.10355 4.94315C5.95236 4.30438 6.42388 3.78346 7.05391 3.78346C8.19455 3.78346 9.07136 4.98618 9.07136 6.7223C9.07136 8.25892 7.96723 9.33328 6.39063 9.33328C4.56456 9.33328 3.49273 7.96363 3.49273 6.54816C3.49273 5.99657 3.70522 5.4051 3.97036 5.08356C4.02281 5.02001 4.03049 4.96435 4.01486 4.89948C3.96615 4.69679 3.85788 4.26088 3.83663 4.17165C3.80864 4.05418 3.74362 4.02924 3.62199 4.08585C2.82046 4.45895 2.31932 5.63084 2.31932 6.5721C2.31932 8.59656 3.79023 10.4558 6.55976 10.4558C8.78607 10.4558 10.5162 8.86933 10.5162 6.74918C10.5162 4.53738 9.1216 2.75734 7.18595 2.75734C6.53562 2.75734 5.92426 3.09519 5.71499 3.49427C5.71499 3.49427 5.39319 2.26893 5.31517 1.96864C5.17029 1.41121 4.77915 0.71247 4.51753 0.286187C5.118 0.100271 5.75613 0 6.41772 0C9.96217 0 12.8355 2.87334 12.8355 6.41775C12.8355 9.96216 9.96217 12.8355 6.41772 12.8355" id="path64" fill="#FFF0DF" fill-rule="evenodd" stroke="none" />
  </g>
</svg>