<?xml version="1.0" encoding="utf-8"?>
<!-- Generator: Adobe Illustrator 23.0.6, SVG Export Plug-In . SVG Version: 6.00 Build 0)  -->
<svg version="1.1" id="Layer_1" xmlns="http://www.w3.org/2000/svg" xmlns:xlink="http://www.w3.org/1999/xlink" x="0px" y="0px"
	 viewBox="0 0 47 49" style="enable-background:new 0 0 47 49;" xml:space="preserve">
<style type="text/css">
	.st0{fill-rule:evenodd;clip-rule:evenodd;fill:#FFFFFF;}
</style>
<desc>Created with Lunacy</desc> 
<g id="Dog">
	<path id="Fill-236" class="st0" d="M8.4,43.7c0.3-0.2,0.5-0.4,0.8-0.6c0.5-0.3,0.6-0.8,0.6-1.1c0-0.6,0-1.2-0.1-1.6l0-0.3
		c0-0.4-0.1-0.9-0.1-1.3c-0.1-0.6-0.2-1.2-0.2-1.8c0-0.4-0.1-0.9-0.1-1.3c0-0.2,0-0.4,0-0.7c0-0.1,0-0.1,0-0.2
		c0.4,0.1,0.5,0.2,0.5,0.5c0,0.3,0.1,0.6,0.1,0.9c0.1,0.5,0.1,0.9,0.2,1.3l0.1,0.3c0.2,1.1,0.3,2.2,0.6,3.3c0.1,0.7,0.1,1.4,0.1,2
		l0,0.4c0,0.3-0.1,0.5-0.3,0.7c-0.2,0.2-0.4,0.3-0.6,0.5C9.8,44.9,9.7,45,9.6,45c-0.7,0-1.3,0-1.9,0c-0.2,0-0.4,0-0.5-0.2
		c0.1-0.3,0.4-0.5,0.7-0.7C8.1,44,8.2,43.9,8.4,43.7z M7.9,31.3c0.1,0.2,0.3,0.4,0.5,0.6l0,0c0.1,0.2,0.2,0.2,0.2,0.4c0,0,0,0,0,0
		c-0.3-0.3-0.5-0.7-0.7-1c-0.1-0.2-0.2-0.3-0.2-0.5C7.6,31,7.8,31.2,7.9,31.3z M28,45.8c0.3-0.1,0.5-0.3,0.7-0.6l0-0.1l0-0.1
		c-0.1-0.4-0.5-0.6-0.8-0.8c-0.6-0.3-1.3-0.7-1.9-1c-0.9-0.5-1.5-1.2-2.1-2c-0.2-0.2-0.3-0.4-0.5-0.7l0,0c0,0-0.1-0.1-0.1-0.1
		l-0.1-0.3c-0.2-0.8-0.5-1.6-0.2-2.4c0.2-0.5,0.3-0.8,0.6-1c0.1-0.1,0.3-0.2,0.4-0.4c0.1-0.1,0.3-0.3,0.4-0.4
		c0.7-0.5,1.4-0.8,2.1-0.8l0.1,0c0.2,0,0.4,0,0.6-0.1c0.2-0.1,0.4-0.3,0.4-0.5c0-0.1,0-0.2,0-0.4c-0.1-0.1-0.2-0.2-0.4-0.2l-0.2,0
		c-0.6-0.1-1.3-0.3-2,0.1c-0.1,0.1-0.3,0.1-0.4,0.2c-0.2,0.1-0.3,0.1-0.5,0.2c-1.4,0.7-2.3,1.8-2.8,3.3c-0.1,0.3-0.1,0.6,0,0.9
		c0.1,0.6,0.3,1.2,0.4,1.9c0,0.2,0.1,0.4,0.1,0.6c-0.1,0-0.2,0-0.3,0c-1.2-0.5-2.5-1.1-3.6-1.9c-0.1-0.1-0.1-0.1-0.2-0.2
		c-0.1-0.1-0.1-0.1-0.2-0.2c-0.4-0.4-0.8-0.7-1.3-1.1l-0.4-0.4c0,0,0,0,0,0c0-0.1,0-0.2,0-0.3c0-0.2,0-0.5,0.1-0.7
		c0.1-0.9,0.2-1.8,0.4-2.7c0.1-0.8,0.2-1.5,0.3-2.3c0-0.3,0-0.5,0.1-0.8c0-0.1,0-0.3-0.1-0.5c-0.1-0.2-0.2-0.3-0.4-0.3
		c-0.2,0-0.4,0-0.5,0.2c-0.4,0.3-0.4,0.8-0.5,1.2c0,0.2,0,0.5,0,0.7c0,0.3,0,0.5-0.1,0.8l-0.1,0.9c-0.1,1.1-0.2,2.2-0.4,3.3
		c-0.1,0.4,0,0.8,0,1.2c0,0.3,0,0.5,0,0.8c0,0.2,0,0.4,0,0.6c0,0.2,0,0.5,0,0.7c0,0.5-0.1,0.9-0.1,1.4l0,0.1c0,0.6,0,1.3-0.2,2
		c0,0.2-0.1,0.3-0.1,0.5c0,0.2,0,0.4-0.1,0.5c-0.2,0.6-0.4,1.3-0.6,1.8c-0.1,0.2-0.2,0.4-0.4,0.5c-1.4,0.6-2.6,0.7-3.9,0.4
		c0,0,0,0-0.1,0h0c0.1-0.4,0.3-0.7,0.7-0.9c0.6-0.3,1.1-0.7,1.5-1.3c0.6-0.8,0.5-1.7,0.4-2.6c-0.1-0.9-0.2-1.8-0.4-2.7
		c-0.2-1-0.4-2.1-0.4-3.2c0-0.6-0.1-1.2-0.2-1.8c-0.3-1.7-1-3.1-2-4.2c-0.1-0.1-0.2-0.3-0.3-0.4c-0.1-0.1-0.2-0.2-0.3-0.4
		c-0.2-0.2-0.4-0.2-0.5-0.2c-0.1,0-0.3,0.1-0.4,0.3c-0.1,0.1-0.1,0.1-0.1,0.2c-0.1-0.3,0-0.7,0-1c0.1-0.6,0.4-1.1,0.6-1.7
		c0.4-1,0.9-2.2,1-3.6c0-0.5-0.1-0.9-0.4-1.3l-0.1-0.1c-0.1-0.1-0.2-0.2-0.3-0.3c-0.7-0.7-1.4-1.5-2.1-2.2l-0.5-0.5l0-1.3
		c0-1.1,0-2.1,0.1-3.2c0-0.8-0.1-1.5-0.4-2.1c-0.1-0.1-0.1-0.2-0.1-0.4c-0.3-1.2-0.9-2.2-2-3.1C2.9,9.2,2.8,9,2.7,8.8
		C2.6,8.7,2.5,8.7,2.4,8.6L2.3,8.5C2.2,8.3,2,8,1.8,7.8C1.5,7.6,1.4,7.3,1.4,7c0-0.1,0-0.1,0-0.2c0,0,0,0,0.1,0c0,0,0.1,0.1,0.2,0.1
		l0,0c0,0,0,0,0,0.1c0.2,0.8,0.7,1.3,1.2,1.8C3.1,8.9,3.2,9,3.3,9.2c0.1,0.1,0.1,0.2,0.2,0.2c0.7,0.8,1.6,1.1,2.6,1.1c0,0,0,0,0,0
		h0.1l0-0.1c0.2-0.3,0.2-0.6-0.1-0.8C6.1,9.6,5.9,9.4,5.7,9.4c-0.6-0.2-1-0.6-1.5-1.1C4.1,8.2,4.1,8.2,4,8.1
		C3.8,7.9,3.6,7.7,3.4,7.5C3.2,7.2,3.1,6.9,3,6.6c-0.2-0.7-0.6-1-1.3-1.1c0,0,0,0,0,0c0,0,0,0,0,0c0-0.3,0.2-0.5,0.4-0.7
		c0,0,0,0,0.1-0.1C2.6,5,3.2,5.3,4,5c0.6-0.2,0.8-0.7,1-1.2C5,3.7,5,3.6,5.1,3.6c0.9-0.2,1.6-0.6,2.2-1c0.3-0.2,0.7-0.3,1.1-0.1
		c1,0.3,1.8,0.6,2.4,1C12,4,12.7,4.9,13.2,6c0.7,1.6,0.8,3.2,0.7,4.7c0,0.7-0.1,1.4-0.2,2.1c0,0.3-0.1,0.6-0.1,0.9l0,0.1
		c0,0.1,0,0.1,0,0.2c0,0.1,0,0.2-0.1,0.3c-0.1,0.2-0.2,0.4,0,0.6c0.1,0.1,0.2,0.3,0.3,0.4c0.1,0.1,0.1,0.2,0.2,0.3
		c0.7,1.2,1.6,2.2,2.5,3.2c0.1,0.1,0.2,0.3,0.3,0.5l0.1,0.2c0.1,0.4,0.3,0.8,0.6,1.2c0.1,0.1,0.2,0.3,0.2,0.5c0.1,0.5,0.1,1.1,0,1.7
		c-0.2,0.9-0.4,1.9-0.4,2.9c0,1.2,0.6,2.1,1.8,2.6c0.5,0.2,0.9,0.2,1.5,0.1c0.9-0.2,1.8-0.2,2.7,0.2c1.1,0.4,2.1,0.3,3.1-0.1
		c0.1,0,0.1,0,0.2-0.1l0,0c1,0.7,4.1,4.7,4.9,6.2c-0.6,0.2-1,0.6-1.4,0.9c-0.2,0.1-0.3,0.3-0.5,0.4c-0.3,0.2-0.4,0.5-0.4,0.8
		c0,0.1,0,0.2,0,0.3c0,0.2,0,0.5,0.1,0.7c0.1,0.5,0.1,1,0.1,1.6c0,0.8,0.4,1.3,1.1,1.6c0.1,0,0.2,0.1,0.3,0.2c0.1,0,0.1,0.1,0.2,0.1
		c0.5,0.2,1.1,0.5,1.7,0.6c0.2,0,0.4,0.1,0.7,0.1c0.1,0,0.1,0,0.2,0.1c0,0,0,0.1,0,0.1c0,0.2,0,0.3,0,0.5c0,0.2-0.1,0.3-0.1,0.5
		c-0.1,0.2-0.2,0.4-0.2,0.7c0,0.2-0.1,0.5-0.2,0.8c0,0.1-0.1,0.2-0.1,0.3c-0.2,0.6-0.4,1.1-0.6,1.6c-0.2,0.3-0.3,0.5-0.5,0.6
		c-0.4,0.2-0.9,0.4-1.4,0.4c-0.5,0-1,0.1-1.4,0.2c-0.3,0-0.6,0.1-0.9,0.1c-1.1,0.1-2.3,0-3.4,0c0,0-0.1,0-0.2-0.1c0,0,0,0,0,0
		c0.1-0.1,0.1-0.2,0.2-0.2c0.4-0.3,0.7-0.5,1.1-0.5C26.6,46.4,27.3,46.2,28,45.8z M46.4,45.9L46.3,46L46.4,45.9
		c-0.1-0.1-0.2-0.1-0.2-0.2c-0.1-0.1-0.3-0.1-0.4-0.2c-0.6-0.3-1.3-0.6-2-0.6c-0.4,0-0.8-0.1-1.2-0.2c-0.8-0.3-1.6-0.6-2.5-0.9
		c-0.9-0.4-1.7-0.8-2.6-1.3c-0.6-0.4-1.2-0.8-1.7-1.2c-0.2-0.1-0.3-0.3-0.5-0.4c-0.2-0.1-0.3-0.3-0.2-0.6c0-0.4,0-0.9,0-1.3
		c-0.1-0.9-0.4-1.7-0.8-2.5l0-0.1c-0.3-0.7-0.7-1.4-1.1-2c-0.2-0.3-0.5-0.7-0.7-1c-0.2-0.3-0.5-0.7-0.7-1c-0.4-0.6-0.8-1.3-1.3-1.9
		c-0.6-0.8-1.4-1.6-2.1-2.4l-0.1-0.2c-0.4-0.4-0.8-0.8-1.3-1.2c-0.4-0.3-0.7-0.6-1.1-0.9c-0.4-0.3-0.7-0.6-1.1-0.9
		c-0.7-0.6-1.4-1.3-2.1-2c-0.8-0.9-1.7-1.8-2.7-2.5c-0.1-0.1-0.2-0.2-0.3-0.3c-0.5-0.7-1.1-1.2-1.6-1.8c-0.1-0.1-0.3-0.3-0.4-0.4
		c-0.8-0.7-1.5-1.5-2-2.3c-0.4-0.6-0.6-1.1-0.4-1.6c0.1-0.6,0.2-1.2,0.2-1.7l0-0.3c0-0.6,0.1-1.1,0.1-1.7c0-0.2,0-0.5,0-0.7
		C15.6,9.1,15.8,9,16,9.1c0.2,0.3,0.3,0.6,0.5,0.9c0,0.1,0.1,0.2,0.1,0.3c0.2,0.5,0.5,1.2,1.3,1.4c0.4,0.1,0.7,0.1,1-0.1
		c0.2-0.1,0.4-0.4,0.5-0.7c0.1-0.3,0.1-0.7,0-1c-0.1-0.5-0.2-1-0.3-1.5c-0.2-0.6-0.4-1.3-0.6-1.9c-0.3-0.8-0.9-1.4-1.7-1.8
		c-0.7-0.3-1.4-0.5-2.1-0.6c-0.7-0.1-1.4-0.4-2-1c0,0,0.1,0,0.1-0.1c0.2-0.1,0.3-0.2,0.5-0.3c0.5-0.4,0.7-1,0.4-1.5
		c-0.4-0.6-0.8-1-1.4-1.1C11.5,0,10.9,0,10.3,0c-0.1,0-0.4,0-0.5,0.2C8.5,0.8,8.1,1,7.9,1.1C7.3,1.2,6.8,1.4,6.2,1.8
		c-0.7,0.4-1.3,0.5-2,0.4c-0.2,0-0.4,0-0.6,0c-0.1,0-0.2,0-0.4,0C2.8,2.1,2.4,2.3,2,2.6C1.6,2.9,1.3,3.2,1.1,3.7
		C1,3.9,0.9,4.1,0.8,4.3C0.5,4.5,0.4,4.8,0.3,5.1l0,0.1C0.1,5.5,0.1,5.9,0.1,6.3c0,0.3,0,0.5-0.1,0.8c0,0.1,0,0.2,0,0.3l0,0
		C0.3,8,0.5,8.6,1.1,9c0.1,0.1,0.2,0.2,0.2,0.2c0.2,0.4,0.5,0.7,0.9,0.9l0.1,0.1c1.4,1.1,1.8,2.8,1.9,4.1c0.1,1,0.1,1.9,0,2.9l0,0.2
		c-0.1,1.1-0.2,2.3-0.4,3.6c-0.2,1.1-0.2,2.2-0.1,3.4c0,0.8,0.1,1.8,0.5,2.7c0.1,0.3,0.2,0.5,0.3,0.8c0.5,1.6,1.2,3.1,2.1,4.4
		c0.1,0.2,0.2,0.3,0.4,0.5c0.1,0.2,0.3,0.4,0.4,0.5c0.1,0.2,0.3,0.4,0.3,0.6c0.2,1.6,0.4,3,0.4,4.3c0,0.3,0.1,0.6,0.1,0.9
		c0.2,1.1,0.3,2.1,0.2,3.1c-0.1,0.1-0.3,0.2-0.4,0.2c-0.3,0.2-0.6,0.4-0.9,0.6c-0.5,0.4-1,0.8-1.2,1.4c-0.3,0.8-0.1,1.5,0.6,1.9
		c0.2,0.1,0.5,0.2,0.8,0.3c0.1,0,0.2,0,0.3,0c0.2,0,0.3,0,0.5,0.1c0,0,0,0.1,0,0.1C8,46.9,8,47,7.9,47.2c-0.1,0.6,0.2,1.2,0.7,1.4
		c0.7,0.2,1.6,0.5,2.6,0.3c0.7-0.1,1.3-0.3,2-0.5l0.4-0.1c0.4-0.1,0.8-0.4,1-0.8c0.5-0.8,0.8-1.7,0.9-2.6c0.1-0.3,0.1-0.5,0.1-0.8
		c0-0.3,0.1-0.7,0.1-1c0.1-0.5,0.1-1,0.1-1.6l0-0.3c0-0.6,0-1.3,0.2-1.9l0.2,0.1c0.2,0.2,0.4,0.3,0.6,0.5c0.1,0.1,0.2,0.2,0.3,0.2
		c0.2,0.2,0.3,0.3,0.5,0.5c1.8,1.2,3.5,2,5.4,2.3c0.2,0,0.4,0.1,0.6,0.3c0.6,0.6,1.2,1.1,2,1.5c0.1,0.1,0.2,0.1,0.4,0.2
		c0,0,0,0,0.1,0l0,0c-0.1,0.1-0.2,0.1-0.3,0.1c-0.2,0.1-0.4,0.1-0.5,0.2c-0.4,0.1-0.8,0.3-1.2,0.6c-0.6,0.4-1,1-1.3,1.8l0,0.1l0,0.1
		c0.3,0.6,0.5,0.6,1.1,0.8c0.8,0.2,1.6,0.3,2.5,0.3c0.4,0,0.9,0,1.3,0c0.6,0,1.1-0.1,1.7-0.2c0.4,0,0.8-0.1,1.2-0.1
		c0.8-0.1,1.4-0.3,2-0.6c0.6-0.4,1.2-0.8,1.4-1.7c0.1-0.4,0.2-0.8,0.4-1.1c0-0.1,0.1-0.2,0.2-0.3c0,0,0,0,0,0l0.5,0.2
		c0.4,0.2,0.8,0.3,1.2,0.4c0.2,0.1,0.4,0.2,0.6,0.2c0.6,0.2,1.2,0.4,1.7,0.7c0.9,0.4,1.8,0.7,2.8,0.8c0.8,0.1,1.6,0.2,2.3,0.5
		c0.6,0.2,1.3,0.4,2,0.4c0.6,0.1,1.4-0.4,1.5-0.8C47.1,47,46.9,46.3,46.4,45.9L46.4,45.9z"/>
	<path id="Fill-237" class="st0" d="M9.5,4.1C9.2,4,8.9,4,8.7,4.1C8.4,4.2,8.2,4.5,8,4.9C8,5.1,8,5.3,8.1,5.4
		c0.1,0.2,0.3,0.4,0.7,0.5l0.1,0c0,0,0.1,0,0.1,0c0.1,0,0.3,0,0.4,0c0.2,0,0.3,0,0.4-0.1C9.9,5.8,10,5.6,10,5.2c0,0,0-0.1,0-0.1
		L10,5C10,4.5,9.8,4.2,9.5,4.1"/>
</g>
</svg>
