<?xml version="1.0" encoding="utf-8"?>
<svg width="15px" height="15px" viewBox="0 0 15 15" version="1.1" xmlns:xlink="http://www.w3.org/1999/xlink" xmlns="http://www.w3.org/2000/svg">
  <desc>Created with Lunacy</desc>
  <path d="M7.00073 0C5.09961 0 4.86102 0.00831267 4.11434 0.0422925C3.36911 0.0764183 2.86043 0.1944 2.41534 0.367508C1.95494 0.546303 1.56439 0.785475 1.1753 1.17471C0.785912 1.5638 0.546741 1.95435 0.367362 2.41461C0.193817 2.85985 0.0756891 3.36867 0.0421467 4.11361C0.00875018 4.86029 0 5.09902 0 7.00015C0 8.90127 0.00845851 9.13913 0.0422926 9.88581C0.0765641 10.631 0.194546 11.1397 0.367508 11.5848C0.546449 12.0452 0.785621 12.4358 1.17486 12.8249C1.5638 13.2142 1.95435 13.454 2.41447 13.6328C2.85985 13.8059 3.36867 13.9239 4.11375 13.958C4.86043 13.992 5.09888 14.0003 6.99985 14.0003C8.90112 14.0003 9.13898 13.992 9.88566 13.958C10.6309 13.9239 11.1401 13.8059 11.5855 13.6328C12.0458 13.454 12.4358 13.2142 12.8247 12.8249C13.2141 12.4358 13.4533 12.0452 13.6326 11.585C13.8047 11.1397 13.9229 10.6309 13.9579 9.88596C13.9914 9.13927 14.0001 8.90127 14.0001 7.00015C14.0001 5.09902 13.9914 4.86043 13.9579 4.11375C13.9229 3.36853 13.8047 2.85985 13.6326 2.41476C13.4533 1.95435 13.2141 1.5638 12.8247 1.17471C12.4353 0.785329 12.0459 0.546157 11.5851 0.367508C11.1388 0.1944 10.6299 0.0764183 9.88464 0.0422925C9.13796 0.00831267 8.90025 2.07246e-15 6.99854 2.07246e-15L7.00073 0ZM6.37277 1.26152C6.55915 1.26122 6.76712 1.26152 7.00075 1.26152C8.86979 1.26152 9.09131 1.26822 9.82939 1.30177C10.5119 1.33298 10.8823 1.44702 11.1291 1.54283C11.4558 1.66971 11.6887 1.82138 11.9335 2.06639C12.1785 2.31139 12.3302 2.54473 12.4574 2.8714C12.5532 3.11787 12.6674 3.48829 12.6984 4.17081C12.732 4.90874 12.7393 5.13041 12.7393 6.99857C12.7393 8.86674 12.732 9.08841 12.6984 9.82634C12.6672 10.5089 12.5532 10.8793 12.4574 11.1257C12.3305 11.4524 12.1785 11.685 11.9335 11.9299C11.6885 12.1749 11.4559 12.3266 11.1291 12.4534C10.8826 12.5497 10.5119 12.6634 9.82939 12.6946C9.09146 12.7282 8.86979 12.7355 7.00075 12.7355C5.13156 12.7355 4.91004 12.7282 4.1721 12.6946C3.48959 12.6631 3.11917 12.5491 2.87226 12.4533C2.54559 12.3264 2.31225 12.1747 2.06725 11.9297C1.82224 11.6847 1.67057 11.452 1.5434 11.1252C1.44759 10.8787 1.3334 10.5083 1.30234 9.82576C1.26879 9.08782 1.26208 8.86615 1.26208 6.99682C1.26208 5.12749 1.26879 4.90699 1.30234 4.16906C1.33354 3.48654 1.44759 3.11612 1.5434 2.86936C1.67028 2.54269 1.82224 2.30935 2.06725 2.06434C2.31225 1.81934 2.54559 1.66767 2.87226 1.5405C3.11902 1.44425 3.48959 1.3305 4.1721 1.29914C4.81787 1.26997 5.06812 1.26122 6.37277 1.25977L6.37277 1.26152ZM10.7374 2.42388C10.2736 2.42388 9.89734 2.7997 9.89734 3.2636C9.89734 3.72736 10.2736 4.10362 10.7374 4.10362C11.2011 4.10362 11.5774 3.72736 11.5774 3.2636C11.5774 2.79984 11.2011 2.42358 10.7374 2.42358L10.7374 2.42388ZM7.00075 3.40527C5.01548 3.40527 3.40588 5.01487 3.40588 7.00014C3.40588 8.98541 5.01548 10.5943 7.00075 10.5943C8.98602 10.5943 10.595 8.98541 10.595 7.00014C10.595 5.01487 8.98588 3.40527 7.0006 3.40527L7.00075 3.40527ZM7.00074 4.66675C8.28935 4.66675 9.33412 5.71137 9.33412 7.00013C9.33412 8.28874 8.28935 9.33351 7.00074 9.33351C5.71198 9.33351 4.66736 8.28874 4.66736 7.00013C4.66736 5.71137 5.71198 4.66675 7.00074 4.66675L7.00074 4.66675Z" id="Shape" fill="#FFF0DF" fill-rule="evenodd" stroke="none" />
</svg>