<svg xmlns="http://www.w3.org/2000/svg" width="14.637" height="10.292" viewBox="0 0 14.637 10.292">
  <path id="youtube-brands" d="M29.264,65.61a1.839,1.839,0,0,0-1.294-1.3A43.464,43.464,0,0,0,22.252,64a43.464,43.464,0,0,0-5.719.308,1.839,1.839,0,0,0-1.294,1.3,20.708,20.708,0,0,0,0,7.092,1.812,1.812,0,0,0,1.294,1.282,43.464,43.464,0,0,0,5.719.308,43.464,43.464,0,0,0,5.719-.308A1.812,1.812,0,0,0,29.264,72.7a20.708,20.708,0,0,0,0-7.092Zm-8.51,5.722V66.98l3.826,2.176Z" transform="translate(-14.933 -64)" fill="#fff"/>
</svg>
