<?xml version="1.0" encoding="utf-8"?>
<svg width="72px" height="43px" viewBox="0 0 72 43" version="1.1" xmlns:xlink="http://www.w3.org/1999/xlink" xmlns="http://www.w3.org/2000/svg">
  <desc>Created with Lunacy</desc>
  <defs>
    <path d="M0 0L71.075 0L71.075 42.9818L0 42.9818L0 0Z" id="path_1" />
    <clipPath id="mask_1">
      <use xlink:href="#path_1" />
    </clipPath>
  </defs>
  <g id="Dog" transform="matrix(-1 0 0 1 71.07501 0)">
    <path d="M0 0L71.075 0L71.075 42.9818L0 42.9818L0 0Z" id="Clip-397" fill="none" fill-rule="evenodd" stroke="none" />
    <g clip-path="url(#mask_1)">
      <path d="M20.0279 18.6624L19.9981 18.7008L20.0413 18.7136L20.0279 18.6624ZM20.6026 19.3472L20.56 19.3184L20.5533 19.36L20.6026 19.3472ZM19.5261 18.5728C19.4663 18.5216 19.4218 18.4544 19.3856 18.4576C19.3424 18.464 19.3066 18.5312 19.2679 18.5696C19.3053 18.6048 19.3412 18.6656 19.3805 18.6688C19.4212 18.672 19.4653 18.6176 19.5261 18.5728ZM26.7722 21.5072C26.5626 21.248 26.4631 21.2768 26.3581 21.5072C26.4842 21.5072 26.5792 21.5072 26.7722 21.5072ZM61.576 13.7536C61.6128 13.728 61.6496 13.7024 61.6868 13.68C61.6154 13.568 61.5447 13.456 61.4736 13.3472C61.434 13.3728 61.3943 13.3984 61.3546 13.424C61.4285 13.5328 61.5021 13.6416 61.576 13.7536ZM18.1648 17.6288C17.969 17.5104 17.8157 17.5264 17.7344 17.7472C17.721 17.7856 17.768 17.8784 17.8061 17.8912C18.041 17.9712 18.1197 17.8272 18.1648 17.6288ZM64.4141 13.8048C64.6362 13.9968 64.7991 14.1408 64.9981 14.3136C65.2167 14.0192 65.2036 13.7984 64.9908 13.5424C64.8196 13.6192 64.6599 13.6928 64.4141 13.8048ZM49.4074 40.4256C49.409 39.0272 49.1994 37.664 48.9066 36.32C48.6378 35.088 48.3565 33.8656 48.3869 32.592C48.3901 32.4512 48.3498 32.3072 48.3316 32.1632C48.2954 31.8816 48.0852 31.7632 47.8516 31.7664C47.4944 31.7696 47.1076 31.5136 46.7847 31.8368C46.712 31.9104 46.6925 32.0672 46.7005 32.1824C46.7392 32.72 46.77 33.2576 46.8519 33.7856C46.9712 34.56 47.1133 35.3312 47.28 36.0992C47.4628 36.9376 47.6784 37.7696 47.8916 38.6016C48.0234 39.12 48.1767 39.6288 48.322 40.1408C48.3664 40.2976 48.4164 40.4512 48.4714 40.6304C48.7956 40.56 49.0903 40.4928 49.4074 40.4256ZM19.7965 19.456C19.498 19.9328 19.4266 20.336 19.5597 20.7744C19.6253 20.992 19.7117 21.2064 19.7418 21.4272C19.8714 22.3904 19.9072 23.3728 20.1242 24.3104C20.3456 25.2736 20.7149 26.2048 21.065 27.1328C21.3284 27.8336 21.6173 28.5504 21.5162 29.28C21.3863 30.2176 21.0868 31.1328 20.849 32.0544C20.6989 32.6368 20.3936 33.168 20.2944 33.7728C20.249 34.048 19.9933 34.3008 19.9802 34.5696C19.9396 35.3888 19.5789 36.1408 19.6288 36.992C19.6864 37.9712 19.553 38.9632 19.505 39.8944C19.616 39.9968 19.6548 40.0608 19.7079 40.0768C19.8714 40.1312 20.0666 40.2464 20.2016 40.1984C20.4471 40.1152 20.3575 39.888 20.3232 39.6736C20.2781 39.392 20.2826 39.088 20.3258 38.8032C20.3895 38.384 20.6324 37.9904 20.4781 37.5328C20.4474 37.4432 20.5581 37.3056 20.5988 37.1904C20.6464 37.056 20.753 36.9024 20.722 36.7872C20.5652 36.2048 20.9418 35.7152 20.9888 35.168C20.9991 35.0496 21.1629 34.9376 21.0855 34.736C21.0416 34.624 21.1312 34.4576 21.1677 34.3168C21.3754 33.5232 21.5978 32.7296 21.7895 31.9296C21.9002 31.4656 22.08 31.3024 22.5348 31.2864C23.0074 31.2672 23.481 31.2288 23.9498 31.168C24.4247 31.1072 24.6996 31.2544 24.7159 31.7248C24.745 32.5504 24.7268 33.3792 24.7069 34.208C24.6807 35.28 24.6084 36.352 24.6023 37.424C24.5972 38.4096 24.6525 39.3984 24.6839 40.384C24.6887 40.5472 24.7069 40.7072 24.7197 40.8768C25.0237 40.9088 25.2893 40.9472 25.5562 40.9632C25.8506 40.9792 25.9908 40.8608 26.0164 40.528C26.0749 39.7664 25.9386 38.9856 26.2352 38.2496C26.249 38.2144 26.2362 38.1664 26.2269 38.1248C25.9994 37.12 26.2695 36.1536 26.4503 35.1776C26.5056 34.88 26.6253 34.6368 26.8788 34.4512C27.2429 34.1856 27.5821 33.8816 27.9479 33.6192C28.6346 33.12 29.3456 32.656 30.0228 32.144C30.8103 31.552 31.6746 31.0912 32.4004 30.3776C33.4416 29.3568 34.2432 28.1984 34.9357 26.9408C35.0426 26.7488 35.1172 26.5216 35.1479 26.304C35.2276 25.7344 35.8765 25.3824 36.3828 25.6544C37.3549 26.176 38.2372 26.8256 39.1146 27.4912C39.6759 27.9136 40.2477 28.336 40.8612 28.6784C41.3562 28.9504 41.8685 29.2448 42.472 29.2576C42.5677 29.2576 42.7005 29.296 42.7511 29.3632C43.0202 29.7312 43.4199 29.7312 43.8096 29.792C44.2804 29.8624 44.7504 29.9456 45.2144 30.0544C46.4205 30.3328 47.6074 30.736 48.8772 30.5472C48.9536 30.5376 49.0554 30.5504 49.1156 30.5952C49.4925 30.8704 49.9325 30.8544 50.3629 30.88C50.9015 30.912 51.4413 30.928 51.9786 30.9696C52.618 31.0208 53.257 31.0848 53.8932 31.1648C54.3207 31.2192 54.7908 31.2256 55.1572 31.4144C55.9079 31.8048 56.5901 32.3136 57.1479 32.9728C57.3952 33.2672 57.6912 33.52 57.9488 33.7728C58.688 33.328 58.7383 33.2832 58.4151 32.624C58.0346 31.8496 57.5674 31.1136 57.1479 30.3552C56.8458 29.808 56.3722 29.4432 55.8701 29.1072C55.6468 28.9568 55.4151 28.8128 55.17 28.704C54.4199 28.3744 53.7136 27.9008 52.8365 27.968C52.6064 27.9872 52.4362 27.8944 52.3402 27.6736C52.1335 27.2 51.7341 26.9632 51.2727 26.784C50.9261 26.6496 50.5908 26.48 50.2628 26.304C49.841 26.0768 49.8122 25.8272 50.1261 25.4752C50.3559 25.2192 50.5981 25.2 50.9063 25.344C51.5968 25.6672 52.2992 25.9648 53.065 26.304C53.2845 26 53.4932 25.728 53.6842 25.4432C54.249 24.6048 54.8189 23.7664 55.3648 22.912C55.9095 22.0608 56.3741 21.1552 56.969 20.3424C58.0676 18.8416 59.0682 17.264 60.3316 15.8816C60.5888 15.6032 60.7668 15.248 60.9767 14.9344C60.6948 14.6048 60.4608 14.3456 60.2378 14.0736C59.7437 13.4752 59.49 12.784 60.0855 11.984C60.2218 11.8016 60.3575 11.616 60.4797 11.424C60.7466 11.0048 60.9591 10.5408 61.2797 10.1696C61.593 9.80476 61.4503 9.19356 62.0058 9.01116C61.8109 8.53116 61.4631 8.24316 61.0948 7.96796C60.6381 7.62876 59.8221 7.61276 59.3712 7.95836C59.0439 8.21116 58.7143 8.47356 58.4365 8.77756C57.9191 9.34076 56.7098 9.45596 56.2112 8.65916C56.1348 8.53756 56.0644 8.40956 55.9386 8.19836C55.6263 8.59196 55.3965 8.82876 55.2292 9.10076C54.5636 10.1888 54.1444 11.3664 53.9117 12.6272C53.6599 13.9904 53.3389 15.3408 53.032 16.6912C52.9002 17.2736 52.7869 17.872 52.5588 18.4192C52.2896 19.0624 51.9002 19.6576 51.5719 20.2784C50.9975 21.36 50.081 22.1344 49.0474 22.6848C47.5879 23.4656 46.0298 24.032 44.3434 24.1568C43.1511 24.2464 41.9914 24.1536 40.8496 23.7856C40.4602 23.6576 40.0471 23.5904 39.6394 23.536C38.9194 23.4432 38.1892 23.4144 37.474 23.296C36.6253 23.152 35.7949 22.8608 34.9434 22.7872C33.7082 22.6752 32.4605 22.672 31.2186 22.6784C30.0986 22.6848 28.9796 22.7776 27.8596 22.8064C25.8071 22.864 23.9175 22.3776 22.2439 21.1328C21.4688 20.5568 20.65 20.0384 19.7965 19.456ZM54.2208 26.8192C54.4464 26.9504 54.625 27.0784 54.8208 27.1712C55.7261 27.5872 56.6644 27.952 57.3664 28.7008C57.6189 28.9696 57.8612 29.2544 58.0653 29.5616C58.7629 30.6144 59.4442 31.6704 59.8628 32.8768C60.0576 33.44 60.3767 33.9584 60.5812 34.5184C60.7812 35.0656 60.6282 35.3728 60.122 35.6352C59.3856 36.016 58.5981 35.936 57.8772 35.6928C57.5444 35.5808 57.3008 35.12 57.0797 34.7744C56.4708 33.8272 55.6906 33.0752 54.6743 32.592C54.3863 32.4544 54.0407 32.4128 53.7168 32.3872C53.1837 32.3392 52.6452 32.3584 52.1117 32.3168C51.4132 32.256 50.7168 32.1696 50.0205 32.0864C49.6256 32.0384 49.5351 32.1088 49.546 32.5088C49.5786 33.7312 49.8439 34.9184 50.0957 36.1088C50.464 37.8528 50.7933 39.6064 50.61 41.4112C50.5792 41.712 50.6711 42.0256 50.6794 42.336C50.69 42.7552 50.5034 42.9856 50.0967 42.9792C49.5415 42.9696 48.9828 43.0368 48.4333 42.8192C47.8477 42.5888 47.52 42.2656 47.3968 41.5936C47.1517 40.2592 46.7597 38.9504 46.4589 37.6224C46.2586 36.7392 46.0861 35.8464 45.9463 34.9504C45.8029 34.032 45.7226 33.1072 45.6 32.1856C45.5213 31.5936 45.265 31.312 44.6743 31.1872C44.2695 31.1008 43.8554 31.0432 43.4426 31.0144C42.8048 30.9728 42.2413 30.7936 41.7172 30.4032C41.3748 30.1472 40.952 29.9808 40.5444 29.8336C39.5501 29.472 38.7428 28.8224 37.9207 28.192C37.4164 27.8048 36.9114 27.4208 36.3869 27.0176C35.952 27.5232 35.6381 27.9872 35.4279 28.5376C35.2836 28.9184 35.0301 29.264 34.7904 29.5968C33.9236 30.8064 32.7997 31.7376 31.6138 32.6272C30.6378 33.36 29.4634 33.808 28.6327 34.7424C28.5408 34.8448 28.3975 34.9248 28.2628 34.9632C27.792 35.0944 27.5917 35.4848 27.5053 35.8784C27.3773 36.4576 27.3668 37.0624 27.3066 37.6544C27.272 38.0032 27.2314 38.3488 27.2064 38.6976C27.1543 39.4176 27.1066 40.1376 27.065 40.8576C27.0423 41.2512 27.0416 41.6416 27.0192 42.0352C27.0007 42.3552 26.8135 42.5088 26.4948 42.5312C25.7082 42.5856 24.9229 42.6496 24.1367 42.7072C23.6151 42.7456 23.4375 42.6048 23.4384 42.0928C23.4397 41.6608 23.5092 41.2288 23.5322 40.7968C23.5895 39.7056 23.6 38.6208 23.5207 37.5296C23.4688 36.816 23.6058 36.0864 23.6583 35.3664C23.6599 35.3472 23.6698 35.3248 23.6698 35.3056C23.6752 34.3968 23.6804 33.488 23.6823 32.5792C23.6823 32.544 23.6471 32.5088 23.5994 32.416C23.3812 32.448 23.1428 32.48 22.9783 32.5024C22.7469 33.1168 22.5351 33.6736 22.3303 34.2304C22.2666 34.4064 22.2048 34.5856 22.1709 34.7648C21.9709 35.8368 21.8064 36.9152 21.5783 37.9808C21.3306 39.1392 21.2896 40.3072 21.2375 41.4784C21.2013 42.2912 20.8887 42.5344 20.1255 42.2688C19.5799 42.08 19.0538 41.824 18.5351 41.568C18.2381 41.4208 18.1984 41.1136 18.2103 40.8128C18.2436 39.968 18.2676 39.1232 18.3184 38.2816C18.4004 36.9248 18.393 35.5584 18.8816 34.256C19.1357 33.5744 19.3213 32.8704 19.5236 32.1728C19.7309 31.4592 19.9012 30.7328 20.1236 30.0224C20.369 29.2416 20.2464 28.5024 19.897 27.7984C19.05 26.0896 18.7578 24.2624 18.7024 22.3808C18.6919 22.0256 18.6516 21.6992 18.5037 21.36C18.2544 20.7936 18.3207 20.1792 18.3997 19.5808C18.4173 19.4432 18.4394 19.3056 18.4685 19.1104C18.2964 19.168 18.1712 19.184 18.0781 19.2448C16.8528 20.0672 15.4948 20.4512 14.0292 20.4192C12.8922 20.3936 11.8458 20.0032 10.8084 19.5584C9.31525 18.9216 8.04261 17.9776 6.85637 16.8928C6.16613 16.2624 5.43909 15.6704 4.78053 15.008C3.81861 14.0384 2.71269 13.2032 2.00933 11.9936C1.90725 11.8176 1.74917 11.664 1.58789 11.536C1.00453 11.0816 0.573486 10.5056 0.205806 9.86876C-0.0418736 9.44316 -0.0709936 9.24156 0.145646 9.03356C0.378606 8.80636 0.802606 8.78076 1.11813 9.02716C1.62437 9.42076 2.13285 9.82076 2.59205 10.2688C3.40325 11.056 4.31333 11.7184 5.27749 12.2816C6.16613 12.8 7.14661 13.1616 8.08997 13.5872C8.86309 13.9328 9.64293 14.2656 10.4167 14.6112C11.0778 14.9056 11.7143 15.2736 12.3988 15.4944C13.0826 15.7152 13.81 15.8112 14.5236 15.9264C15.3812 16.0672 16.2439 16.1792 17.1053 16.2944C17.6813 16.3744 18.2608 16.5088 18.8346 16.4896C19.2932 16.4736 19.785 16.3392 20.1924 16.1248C20.977 15.7152 21.8445 15.5936 22.6612 15.3056C24.1415 14.7776 25.6272 14.2656 27.1232 13.7856C27.7892 13.5712 28.4868 13.4592 29.1677 13.2928C29.5668 13.1936 29.9594 13.0688 30.3581 12.9664C31.3152 12.7264 32.2708 12.4768 33.234 12.2592C33.7712 12.1376 34.3501 12.24 34.8637 11.9712C35.8087 12.0544 36.729 11.776 37.6714 11.776C38.0244 11.7792 38.3744 11.6096 38.7312 11.5488C39.0749 11.488 39.4253 11.4528 39.7741 11.44C41.136 11.3856 42.5008 11.3984 43.8551 11.1936C44.3466 11.12 44.8455 11.0944 45.3412 11.0496C46.5799 10.9344 47.7965 10.7008 48.9821 10.3296C49.8714 10.0512 50.7488 9.73436 51.6314 9.43356C51.8077 9.37276 51.9796 9.29276 52.1604 9.25436C53.6868 8.93116 54.5495 7.86236 55.2004 6.55676C55.2615 6.43516 55.3332 6.25916 55.29 6.15036C55.0077 5.44956 55.249 4.76156 55.3053 4.07036C55.3303 3.76316 55.3415 3.45276 55.376 3.14556C55.4503 2.48636 55.5306 1.83036 55.6208 1.17436C55.6372 1.05916 55.7098 0.947157 55.7623 0.835157C55.8724 0.601557 56.0564 0.495957 56.3159 0.521557C56.5904 0.550357 56.7565 0.758357 56.7549 0.979157C56.7492 1.99676 57.3796 2.81596 57.5789 3.76956C57.6944 4.32316 57.9031 4.38076 58.4368 4.16956C58.5719 4.11516 58.7085 4.02236 58.8452 4.02236C59.4711 4.01596 59.6935 3.59996 59.8506 3.09436C60.0784 2.36476 60.306 1.63196 60.5472 0.905557C60.6186 0.691157 60.7143 0.476757 60.8384 0.287957C60.9661 0.0959574 61.146 -0.0640426 61.4151 0.0255574C61.6861 0.118357 61.9319 0.275157 61.9162 0.585557C61.8967 0.972757 61.984 1.31516 62.1287 1.66716C62.2112 1.86876 62.1946 2.11836 62.1968 2.34556C62.2042 3.07196 62.193 3.79836 62.2048 4.52156C62.2071 4.65916 62.2765 4.79356 62.3264 4.92796C62.4269 5.19356 62.5175 5.46236 62.6464 5.71516C62.7351 5.88796 62.8484 6.09276 63.0074 6.17916C63.7584 6.59196 64.2452 7.26396 64.8077 7.87516C65.3232 8.43196 65.9428 8.90236 66.5447 9.37276C67.2026 9.89116 67.8164 10.4416 68.304 11.1232C68.4871 11.3792 68.6832 11.4048 68.9437 11.2544C69.8016 10.7616 69.993 10.7936 70.6208 11.5264C71.4516 12.496 71.1389 13.1456 70.074 13.5616C69.7559 13.6864 69.5767 13.872 69.3719 14.1056C69.1175 14.4 68.8026 14.64 68.5015 14.8864C68.3108 15.0464 68.0736 15.152 67.8996 15.3248C67.4695 15.7472 66.9044 15.8976 66.3738 16.1184C66.2471 16.1696 66.0868 16.176 65.9482 16.1568C64.738 15.9936 63.5284 15.824 62.32 15.648C61.9952 15.6 61.7863 15.6928 61.5901 15.9744C60.5904 17.4016 59.5396 18.7936 58.5607 20.2368C57.6656 21.5552 56.8509 22.928 55.9796 24.2624C55.4359 25.0944 54.8532 25.904 54.2208 26.8192L54.2208 26.8192Z" transform="translate(-0.01928711 0)" id="Fill-396" fill="#0E498D" fill-rule="evenodd" stroke="none" />
    </g>
  </g>
</svg>