<?xml version="1.0" encoding="utf-8"?>
<svg width="73px" height="78px" viewBox="0 0 73 78" version="1.1" xmlns:xlink="http://www.w3.org/1999/xlink" xmlns="http://www.w3.org/2000/svg">
  <desc>Created with Lunacy</desc>
  <g id="D" transform="matrix(-1 0 0 1 73 0)">
    <path d="M30.2973 31.0631C30.2973 31.1134 30.302 31.1636 30.2973 31.2093C30.2832 31.5153 30.1844 31.6432 29.9399 31.666C29.6906 31.6934 29.5354 31.593 29.4696 31.3235C29.2297 30.3369 28.8394 29.364 28.3174 28.4414C28.2327 28.2907 28.1857 28.1445 28.181 28.0258C28.1716 27.5051 28.1716 26.9844 28.1763 26.4592L28.1763 25.9796L28.181 25.9796C28.2233 26.0253 28.2657 26.0709 28.3127 26.1166C28.4632 26.2765 28.6137 26.4318 28.7407 26.6008C29.7612 27.939 30.2832 29.4052 30.2973 30.9627L30.2973 31.0631ZM23.4077 22.9742C23.0174 24.7327 22.4671 26.2993 21.7194 27.77C21.1174 28.9621 20.4826 30.1588 19.8336 31.3235C19.5608 31.8168 19.2128 32.2826 18.8742 32.7348C18.6485 33.0408 18.4321 33.1916 18.0512 33.0089C18.0888 32.9358 18.1265 32.8627 18.1594 32.7896C18.2817 32.5521 18.3945 32.3283 18.4933 32.0954C18.8366 31.3052 19.0623 30.4648 18.418 29.6838C18.1265 29.3229 17.802 28.9758 17.4257 28.9027C16.6028 28.7337 15.8503 28.6881 15.1966 28.7657C14.7263 28.8251 14.2984 29.122 14.0256 29.5787C13.7247 30.0857 13.6635 30.6703 13.8704 31.1454C13.988 31.4331 14.1526 31.698 14.3078 31.9538C14.4207 32.1365 14.5335 32.3192 14.6276 32.5064C14.7028 32.6572 14.731 32.8353 14.7122 32.8718C14.6511 32.9449 14.5994 32.9358 14.59 32.9449C14.5194 32.9449 14.4301 32.8855 14.3548 32.7942C14.209 32.6252 14.0586 32.4562 13.9081 32.2872C13.513 31.8442 13.1039 31.3829 12.817 30.8804C12.5678 30.4283 12.3891 29.9258 12.2151 29.4371C12.0787 29.058 11.9376 28.6652 11.7636 28.2998C11.4109 27.5371 11.0064 26.7834 10.6114 26.0527C10.4562 25.7558 10.2963 25.4635 10.1364 25.162C10.0988 25.0844 10.0612 25.0067 10.0189 24.9336C9.90129 24.7007 9.77902 24.4632 9.62853 24.2394C9.44512 23.9745 9.2429 23.7187 9.04538 23.4629C8.89489 23.2665 8.7444 23.0747 8.59862 22.8737C8.45753 22.6819 8.33526 22.4809 8.2271 22.3074C8.20358 22.2708 8.18477 22.2388 8.16596 22.2069C8.41991 21.8872 8.67856 21.5811 8.93251 21.2706C9.56739 20.5078 10.1693 19.7816 10.7196 19.0051C11.2416 18.2743 11.9329 17.7947 12.9581 17.4567C14.51 16.9452 16.1795 16.7168 18.0183 16.7488C18.9683 16.7671 19.6172 17.0594 20.1957 17.7171L20.2615 17.7947C21.2068 18.8727 22.1803 19.9917 23.0221 21.1792C23.4406 21.773 23.5582 22.3074 23.4077 22.9742ZM12.4831 33.4565C13.0286 33.7853 13.4096 34.2695 13.5318 34.813C13.6353 35.2606 13.5554 35.7037 13.3108 36.0828C12.4925 35.4479 12.1727 34.4293 12.4831 33.4565ZM16.25 37.2931C15.7327 37.3708 15.239 37.2703 14.7122 36.9871L14.7546 36.4025C14.7969 35.8498 14.8392 35.3063 14.8721 34.7628C14.8862 34.5207 14.9803 34.4065 15.2013 34.3426L15.3236 34.3106C15.7516 34.1873 16.1278 34.0822 16.4476 34.3882C16.0337 36.1604 16.0102 36.2883 16.25 37.2931ZM17.5903 34.9044L19.1517 34.5618C19.1893 35.5712 19.0341 36.3614 18.2628 36.9277C18.197 36.978 17.9948 37.1196 17.9242 37.1013C17.8537 37.0876 17.7408 36.9232 17.6421 36.7679C17.3035 36.2243 17.2847 35.6625 17.5903 34.9044ZM11.124 46.8436C11.0347 45.7703 10.823 44.6969 10.6208 43.6556C10.5315 43.1943 10.4421 42.7375 10.3622 42.2762L10.207 41.349C10.0612 40.4858 9.90599 39.5951 9.73199 38.7227C9.67085 38.4121 9.5768 38.1061 9.48274 37.8138C9.40279 37.5443 9.31814 37.2703 9.25701 36.9962C9.19117 36.6857 9.14414 36.3659 9.09711 36.0553C9.04068 35.6671 8.97954 35.2743 8.88549 34.8861C8.74911 34.3563 8.58921 33.8219 8.43402 33.3057C8.19418 32.511 7.94963 31.6843 7.79444 30.8622C7.48406 29.2133 7.34297 27.8294 7.65806 26.4181L7.7239 26.1212C7.86498 25.4726 7.8885 25.3675 8.10953 25.1392C9.083 26.4911 9.85896 27.9938 10.475 29.7294C10.6867 30.3186 10.9265 30.885 11.1851 31.4833C11.2933 31.7391 11.4015 31.9949 11.5143 32.2552C11.4767 32.3192 11.4391 32.3877 11.4015 32.4562C11.2745 32.6846 11.1287 32.9358 11.03 33.2098C10.6161 34.3106 10.9171 35.3931 11.2275 36.3248C11.3686 36.7359 11.4579 37.0648 11.3074 37.5215C11.1287 38.0467 11.1757 38.6542 11.2134 39.1932C11.378 41.317 12.074 43.2765 12.8405 45.2633L12.8782 45.3592C13.1979 46.1905 13.5271 47.0446 13.7811 47.9078C13.8704 48.2139 13.8704 48.6067 13.7811 49.0177C13.7011 49.3694 13.6447 49.7348 13.5883 50.0865C13.4331 51.0411 13.2732 52.0277 12.6947 52.9412C12.6524 52.9412 12.6007 52.9457 12.549 52.9457C12.342 52.9594 12.1069 52.9686 11.8812 52.932C11.3921 52.8544 11.2228 52.6397 11.2228 52.0688C11.2181 51.6257 11.2181 51.1873 11.2228 50.7442C11.2275 49.4608 11.2322 48.1408 11.124 46.8436ZM25.3546 44.8431C25.397 44.4503 25.444 44.0438 25.5098 43.651C25.6321 42.9156 25.7168 42.299 25.5663 41.6459C25.5475 41.5637 25.5381 41.4815 25.5239 41.3992C25.5004 41.2577 25.4722 41.1069 25.4252 40.9608C25.1665 40.1843 24.8326 39.7184 24.3765 39.4992C23.9297 39.28 23.3842 39.2982 22.6458 39.5403C21.9028 39.7869 21.1786 40.1295 20.4826 40.4584C20.238 40.5725 19.9888 40.6867 19.7442 40.8009C19.542 40.8923 19.368 41.0384 19.2739 41.1891C18.7707 42.0067 18.2487 42.8563 18.5121 43.9296C18.625 44.3909 18.7331 44.8568 18.8413 45.3181C18.9777 45.9119 19.114 46.5056 19.2645 47.0948C19.415 47.6977 19.5749 48.3006 19.7348 48.899C20.0311 50.0043 20.3368 51.1507 20.5813 52.2835C20.8823 53.7131 21.1786 55.2477 21.2726 56.7961C21.3949 58.9382 21.4701 60.8748 21.0892 62.816C20.9952 63.3138 20.7976 63.8436 20.4543 64.5242C20.2474 64.9352 20.2145 64.9215 19.7442 64.748C19.5467 64.6749 19.368 64.6338 19.2081 64.6338C19.1705 64.6338 19.1329 64.6384 19.0952 64.6429C18.324 64.7389 17.7361 64.5562 17.1953 64.0446C17.2941 63.7066 17.3317 63.3595 17.374 62.9895C17.4163 62.5785 17.4634 62.1491 17.6092 61.7243C17.8866 60.9022 18.0136 59.8974 17.9854 58.7418C17.9431 57.1021 17.7408 55.4578 17.5715 54.2109C17.4916 53.608 17.327 53.0142 17.1718 52.4387C17.0918 52.1373 17.0072 51.8358 16.9367 51.5344C16.6404 50.2829 16.1419 49.0908 15.6575 47.9398C15.3142 47.1222 14.9615 46.2727 14.684 45.4186C14.5147 44.8979 14.336 44.3818 14.1573 43.8657C13.9081 43.1577 13.6541 42.4269 13.4378 41.7007C13.2073 40.9425 13.0569 40.1432 12.9064 39.3759L12.864 39.1475C12.8358 38.9968 12.7794 38.8506 12.723 38.7045C12.6148 38.4167 12.516 38.1655 12.6148 37.8869L13.1509 38.1198C13.4848 38.2614 13.8234 38.4076 14.1573 38.5583C15.7139 39.2388 17.2988 39.2434 18.7425 38.5629C19.6078 38.1564 20.6613 37.3708 20.7412 35.9549C20.7459 35.8133 20.76 35.6717 20.7741 35.5347C20.8353 34.9044 20.8964 34.2512 20.4261 33.6255C20.3838 33.557 20.4637 33.2327 20.6048 33.0454C21.235 32.2278 21.7147 31.3189 22.1756 30.4374C22.3731 30.0629 22.5706 29.6883 22.7822 29.3229C23.4641 28.1126 23.8639 26.8017 24.1601 25.6827C24.1789 25.6188 24.2213 25.5502 24.2683 25.4726C24.273 25.468 24.273 25.468 24.273 25.468C24.3812 25.5594 24.4141 25.6873 24.4564 25.8654C24.4705 25.9248 24.4846 25.9796 24.4987 26.0298C24.6304 26.45 24.7433 26.8839 24.8561 27.2996C24.9032 27.4823 24.9502 27.6604 25.0019 27.8431C25.2089 28.5967 25.665 28.9895 26.3657 29.0169C26.7796 29.0306 26.9771 29.2544 27.1558 29.6061C27.9647 31.1682 28.3832 32.6435 28.4444 34.105C28.4679 34.6394 28.5619 35.1784 28.6466 35.6945C28.7171 36.0919 28.7877 36.503 28.8253 36.9049C28.9899 38.6451 28.9288 40.3533 28.6419 41.9793C28.5431 42.5502 28.4726 43.1394 28.4115 43.7104C28.3268 44.4503 28.2422 45.2131 28.0776 45.9484C27.8753 46.8893 27.4568 47.8256 27.0476 48.7026C26.8925 49.0314 26.5115 49.2004 26.1024 49.1456L25.9096 49.1182C25.2982 49.036 24.7198 48.9584 24.3624 48.392C25.0725 47.2912 25.2136 46.0489 25.3546 44.8431ZM31.9997 31.1499C31.9762 29.565 31.4401 27.971 30.4148 26.4181C30.0198 25.8152 29.5401 25.2945 29.0322 24.7372C28.83 24.5134 28.6231 24.2896 28.4256 24.0567C28.482 23.8923 28.5337 23.7278 28.5855 23.5634C28.7359 23.1204 28.8723 22.7002 29.0369 22.28C29.1498 22.0013 29.2862 21.7227 29.4131 21.4533C29.5777 21.1107 29.747 20.759 29.8787 20.3936C30.4666 18.7676 29.8364 17.338 28.2845 16.7442C27.7437 16.5387 27.1276 16.3057 26.5021 16.1779C24.969 15.8627 23.3842 15.5704 21.6488 15.2872C21.2679 15.2233 20.8306 15.2598 20.4449 15.3877C20.0734 15.5064 19.7724 15.4699 19.4338 15.3694C18.9353 15.2278 18.3992 15.1456 17.8349 15.1182C17.1483 15.0954 16.457 15.1228 15.7892 15.1502L15.6105 15.1593C15.5964 15.1593 15.5776 15.1593 15.5634 15.1593C15.3142 15.1593 15.1167 15.0725 14.8627 14.8579C13.9457 14.0631 13.6494 12.9441 13.3578 11.8616L13.3296 11.7429C13.0569 10.7289 13.0898 9.93417 13.4331 9.23992L13.5977 8.9065C13.8375 8.40865 14.0868 7.89253 14.4207 7.46319C15.3283 6.30306 16.1231 5.24342 16.7156 3.99651C17.0918 3.20634 17.2235 2.3568 17.1483 1.24691C17.1295 0.90892 16.9131 0.584632 16.7203 0.301451L16.6968 0.260344C16.5934 0.105051 16.4382 0.0137023 16.2689 0C16.1043 0 15.9538 0.0593767 15.8315 0.1964C15.5634 0.506985 15.286 0.831273 15.1402 1.21037C14.6229 2.55776 13.7482 3.56717 12.5396 4.21118C11.6037 4.71359 10.6208 5.26625 9.73669 6.01531C8.57981 6.99731 7.79914 8.00215 7.29124 9.18055C7.11724 9.57792 7.08432 9.96615 7.0467 10.3407C7.02789 10.5508 7.00907 10.7517 6.96675 10.9481C6.74572 12.0169 6.83037 13.1131 7.23011 14.3966C7.25362 14.4788 7.28654 14.5656 7.31476 14.6478C7.42292 14.9675 7.53108 15.2644 7.44173 15.5293L6.61874 15.5658C5.89922 15.5978 5.2032 15.6298 4.50719 15.68C3.20922 15.7668 2.13699 16.1505 1.23876 16.8447C0.923668 17.0913 0.580365 17.3928 0.495715 17.8998C0.45339 18.183 0.406362 18.4616 0.354631 18.7448C0.246467 19.3522 0.138303 19.978 0.0771668 20.5991C0.0442473 20.9737 0.0536528 21.3573 0.0630584 21.7273C0.072464 22.1201 0.0818696 22.5266 0.0348417 22.9194C-0.110945 24.1663 0.227656 25.3401 0.552148 26.4683L0.660312 26.8291C0.801396 27.3407 1.21054 27.6239 1.87833 27.6695C2.81889 27.7335 3.56193 27.2722 3.98048 26.3678C4.26735 25.7421 4.71411 25.2031 5.14677 24.6824C5.5277 24.2257 5.91803 23.7507 6.2143 23.2071C6.40241 22.86 6.68928 22.723 7.07021 22.7961L7.44643 23.6319C7.37589 23.7141 7.31476 23.7963 7.24892 23.8694C7.08902 24.0704 6.93853 24.2577 6.81156 24.4541C6.15317 25.4726 6.0356 26.6145 5.91803 27.7198C5.76754 29.1905 6.04971 30.6247 6.32717 31.8533C6.66107 33.3057 7.03259 34.7719 7.3947 36.1924C7.5593 36.8272 7.71919 37.4576 7.87909 38.0924C7.92612 38.2888 7.97785 38.4761 8.02488 38.6679C8.14715 39.1292 8.26942 39.6088 8.35877 40.0793C8.58921 41.3079 8.81024 42.6188 9.06419 44.2128L9.17236 44.8933C9.33695 45.9393 9.51096 47.0263 9.60501 48.0951C9.67085 48.8305 9.65674 49.5887 9.63793 50.3195C9.63323 50.5752 9.62853 50.831 9.62382 51.0868C9.62382 51.2375 9.62382 51.3882 9.62853 51.539C9.63323 52.0094 9.63793 52.489 9.55328 52.9457C9.4075 53.7176 9.56739 54.4713 10.0471 55.2569C10.5315 56.0562 11.1899 56.385 11.9047 56.184C12.5537 55.9968 13.4566 55.6314 13.8093 54.5991C14.115 53.7131 14.4536 52.8178 14.7828 51.95C14.8768 51.6988 14.9709 51.4476 15.0649 51.1964C15.5728 52.5895 15.9209 54.1333 16.1231 55.8963C16.3817 58.0978 16.2453 60.3541 15.7045 62.7977C15.4929 63.7569 15.3612 64.7343 15.3236 65.6889C15.286 66.4836 15.6575 67.2418 16.2877 67.662C16.6216 67.8858 17.0072 68 17.421 68C17.7643 68 18.1218 67.9224 18.4886 67.7671L18.5591 67.7397C18.6532 67.6985 18.7425 67.662 18.8272 67.6118C19.0294 67.4839 19.2363 67.3651 19.4432 67.2418C19.9794 66.9221 20.539 66.5978 21.0516 66.2187C21.4984 65.8898 21.8652 65.4696 22.0439 65.0586C22.7775 63.4371 23.1067 61.7929 23.0315 60.1668C22.9844 59.2397 22.8904 58.3033 22.801 57.3944C22.754 56.9514 22.7117 56.5038 22.6741 56.0607C22.4953 54.0739 22.2179 52.4387 21.7899 50.9086L21.63 50.3286C21.2773 49.0588 20.9105 47.748 20.6095 46.4508C20.3603 45.3912 20.2286 44.5142 20.2004 43.6967C20.1628 42.7695 20.5484 42.1711 21.3338 41.9108C21.6488 41.8103 21.9545 41.6779 22.2508 41.55C22.5095 41.4404 22.7775 41.3262 23.0456 41.2348C23.356 41.1252 23.5676 41.1069 23.6663 41.1754C23.7604 41.244 23.8027 41.4221 23.798 41.7098C23.7792 42.4863 23.7087 43.2765 23.6475 44.0438C23.6146 44.4001 23.5864 44.7609 23.5582 45.1171C23.5206 45.6059 23.3324 45.8479 22.8387 46.0398C21.5172 46.5559 21.0234 47.7343 21.5172 49.1913C21.757 49.9084 22.2085 50.4473 22.6411 50.9635C23.0785 51.4933 23.6052 51.7491 24.2448 51.7491C24.2542 51.7491 24.2683 51.7491 24.2777 51.7491C25.7967 51.7308 27.1323 51.1462 28.134 50.0637C28.877 49.2644 29.3802 48.2367 29.5966 47.0903C29.9022 45.4369 30.1327 43.9707 30.2973 42.5959C30.4337 41.4678 30.4901 40.3122 30.5465 39.1932L30.5653 38.8415C30.6312 37.558 30.5418 36.3157 30.302 35.1419C30.2032 34.6668 30.3208 34.338 30.7064 34.0091C31.5576 33.292 32.0138 32.2735 31.9997 31.1499L31.9997 31.1499Z" transform="translate(0 10)" id="Fill-47" fill="#FFF0DF" fill-rule="evenodd" stroke="none" />
    <path d="M2.38994 0.160109C2.04209 -0.0622645 1.62467 -0.052999 1.27273 0.187905C0.990353 0.377849 0.740718 0.637285 0.478807 0.905986C0.356036 1.03107 0.229172 1.16542 0.0900321 1.29514L0 1.38316L0.0654779 1.49435C0.130956 1.61017 0.184156 1.71209 0.237357 1.80474C0.343759 2.00395 0.437883 2.17537 0.548377 2.32825C0.871674 2.79153 1.17042 3 1.56328 3C1.76381 3 1.9848 2.94904 2.24671 2.84712C2.84829 2.61085 3.00789 2.28655 2.9997 1.34147C2.99152 0.836494 2.76644 0.39638 2.38994 0.160109" transform="translate(11 33)" id="Fill-48" fill="#FFF0DF" fill-rule="evenodd" stroke="none" />
    <path d="M1.59565 0C1.59088 0 1.59088 0 1.5861 0C1.18486 0 0.716744 0.325984 0.434919 0.604724C0.267735 0.770079 -0.00931267 1.09606 0.000240702 1.40787C0.00979408 1.81417 0.200862 2.22047 0.525676 2.52756C0.845714 2.82992 1.25651 3 1.66253 3C1.67208 3 1.68163 3 1.69596 3C2.35515 2.98583 3 2.28661 3 1.59213C3 0.633071 2.45068 0.00944882 1.59565 0" transform="translate(17 33)" id="Fill-49" fill="#FFF0DF" fill-rule="evenodd" stroke="none" />
    <path d="M24.1793 33.8217C24.9831 32.8815 25.713 32.1026 25.7777 30.849C24.6135 31.72 24.1469 32.5496 24.1793 33.8217ZM26.8079 48.4917C26.4013 49.8375 25.9856 51.1464 26.2166 52.5383C27.2976 52.5936 27.2976 52.5936 28.1615 52.0313C28.1476 50.7085 27.4131 49.6347 26.8079 48.4917ZM20.659 7.71246C18.2013 6.10397 15.9885 4.31573 13.4107 3.0529C12.1865 2.44914 10.9484 2.16339 9.61328 2.0666C8.46759 1.98825 7.32652 1.77163 6.17621 1.69789C5.06285 1.62876 3.93564 1.5965 2.82691 1.68407C1.86139 1.76242 1.74128 2.05277 1.87063 2.99298C2.04156 4.21894 2.68832 5.1361 3.68618 5.82282C4.75795 6.55563 5.84821 7.26079 5.85745 8.70797C6.09767 8.7725 6.21778 8.84624 6.32866 8.83241C7.56674 8.68493 8.50455 9.15503 9.16979 10.1828C9.43311 10.5976 9.83041 10.616 10.26 10.6022C11.0408 10.5792 11.7707 10.7866 12.2465 11.4134C13.0273 12.4365 14.0344 12.4642 15.1431 12.2476C15.3787 12.2015 15.6559 12.1001 15.8499 12.1784C16.723 12.5379 17.1619 11.9757 17.6008 11.4134C17.8549 11.0908 18.0396 10.7128 18.303 10.3994C19.0467 9.52374 19.8182 8.6711 20.659 7.71246ZM24.5442 68.9136C24.5442 67.6369 24.5581 66.3602 24.5396 65.0836C24.498 61.4887 24.401 57.8938 24.401 54.2988C24.401 51.4045 24.9184 48.5516 25.3989 45.7033C25.6068 44.4635 26.637 43.6892 27.8843 43.7906C28.1568 43.8137 28.5865 43.8966 28.6835 43.763C29.2656 42.938 29.9678 42.8504 30.8363 43.2145C30.9564 43.2652 31.1597 43.173 31.3075 43.1131C31.7972 42.9103 32.2869 42.7029 32.7627 42.4679C33.3817 42.1637 33.6774 42.2374 33.8761 42.8965C34.0054 43.3205 34.0378 43.786 34.0655 44.2377C34.1625 45.9245 34.2133 47.616 34.3288 49.3074C34.4674 51.28 34.6707 53.2526 34.8 55.2298C34.8647 56.2438 35.0125 56.4558 36.0058 56.5434C37.2438 56.6494 37.9091 55.935 37.7705 54.6537C37.4794 51.9391 37.193 49.2291 36.9112 46.5145C36.8881 46.2702 36.8789 46.0167 36.9066 45.7724C37.1006 44.1363 37.2023 42.4771 37.5349 40.8686C37.9137 39.0159 38.3757 37.1631 39.0317 35.3933C39.6646 33.688 40.2513 31.9873 40.5469 30.1899C40.9766 27.5721 41.4154 24.9542 41.2491 22.2903C41.1798 21.1519 41.0782 19.9951 40.8103 18.8936C40.5423 17.7782 40.0711 16.7136 39.6415 15.6443C38.9716 13.9759 38.3618 12.3305 37.1884 10.8465C35.8487 9.15042 34.1763 8.05812 32.4162 6.97965C31.0165 6.1224 29.5197 6.14544 27.9859 6.39432C27.7041 6.44041 27.4223 6.57868 27.1405 6.57407C24.3687 6.54642 22.6594 8.43144 20.8115 10.0584C20.7745 10.0906 20.8115 10.2059 20.8207 10.3579C21.2688 10.2934 21.717 10.1505 22.1466 10.1874C23.7958 10.3257 25.4543 10.4271 27.0804 10.722C28.277 10.9433 29.6028 11.0032 30.5452 11.9388C31.0257 12.4227 31.557 12.5564 32.1991 12.6255C34.1209 12.8283 35.784 13.5749 37.0313 15.1189C37.3639 15.5337 37.7843 15.8794 38.1678 16.2573C39.2765 17.3588 39.429 18.1884 38.8284 19.6218C38.2371 21.0229 37.618 22.4147 37.096 23.8435C36.5555 25.3091 36.112 26.807 35.65 28.3002C35.3682 29.2036 34.7954 29.5493 34.1024 29.0884C32.4901 28.0053 31.2521 26.6641 31.3814 24.5394C31.4553 23.4287 31.5339 22.3133 31.6771 21.2118C32.0189 18.6447 31.5108 16.3633 29.6259 14.4783C29.4088 14.257 29.1778 13.9482 29.1455 13.6625C29.0854 13.091 28.7713 12.879 28.2816 12.773C27.7965 12.6716 27.3207 12.5057 26.8356 12.4365C25.325 12.2199 23.8004 11.8328 22.2944 11.8835C19.5041 11.971 18.3446 12.9159 17.7579 14.9484C17.3051 16.5154 17.282 18.1331 17.5176 19.7416C17.5546 20.0043 17.6932 20.3684 17.8964 20.4698C18.8111 20.9307 18.9867 21.7464 19.1207 22.6636C18.7557 23.0047 18.4046 23.3365 18.0628 23.6545C18.4554 26.0004 17.5453 28.1666 17.3513 30.4157C17.5407 30.4019 17.6424 30.4295 17.6932 30.3881C17.8225 30.2867 17.9565 30.1761 18.0443 30.0424C18.788 28.8902 19.8136 28.881 21.0009 29.2174C21.6661 29.4018 21.9849 29.752 22.0865 30.3927C22.1466 30.7383 22.2482 31.0794 22.3406 31.4896C23.5787 31.0103 24.17 30.0608 24.8306 29.1621C25.3157 28.503 25.8655 27.8808 26.4475 27.3001C26.8587 26.8899 27.3022 27.0006 27.778 27.3508C28.5865 27.9454 28.4756 28.775 28.2816 29.4986C27.7318 31.5449 26.9973 33.5636 25.3481 34.9923C24.0961 36.08 22.9273 37.1308 22.4422 38.8038C22.2436 39.4814 21.5876 39.7533 20.8253 39.6749C19.6104 39.5459 18.6957 38.555 18.8019 37.2875C18.8897 36.2782 19.0976 35.2781 19.2731 34.112C18.8019 33.9968 18.2337 33.8539 17.6008 33.6972C17.5453 34.0199 17.4853 34.218 17.4853 34.4116C17.476 35.3564 17.4807 36.2966 17.4807 37.2368C17.476 38.4766 17.3837 39.7256 17.4899 40.9562C17.6424 42.7168 17.9149 44.4728 18.1782 46.2195C18.8296 50.5472 19.4856 54.875 20.1786 59.1981C20.6313 62.0233 20.987 64.8393 20.4881 67.6968C20.4234 68.0563 20.4604 68.4388 20.4604 68.8122C20.4604 69.25 20.6498 69.5173 21.121 69.5311C22.3083 69.5634 23.5371 69.8215 24.5442 68.9136ZM16.5521 32.9644C15.5358 32.015 15.448 30.6369 15.8176 29.1437C16.0347 28.2588 16.2241 27.3693 16.3766 26.4751C16.4689 25.9543 16.5429 25.4474 15.8961 25.0971C15.6605 24.968 15.5404 24.4565 15.5265 24.1154C15.4896 22.8295 15.2355 21.6036 14.8936 20.3546C14.4317 18.6816 14.3947 16.921 14.8428 15.1973C14.9213 14.8792 14.9999 14.5612 15.1154 14.0819C14.6626 14.0635 14.2746 14.0312 13.8865 14.0404C12.884 14.0727 11.9971 13.8376 11.318 13.0403C10.9576 12.6209 10.5326 12.2798 9.92742 12.3582C8.93418 12.4872 8.19965 12.0171 7.73305 11.2336C7.34038 10.5746 6.83221 10.4732 6.17159 10.5469C5.92674 10.5746 5.67266 10.57 5.42781 10.5976C4.82263 10.6529 4.48539 10.3856 4.38838 9.79106C4.3468 9.54679 4.26826 9.30712 4.24978 9.06286C4.19897 8.26552 3.74161 7.76316 3.06252 7.44975C1.27006 6.62016 0.50319 5.03471 0.0596965 3.27412C-0.0835149 2.71645 0.0550768 2.04356 0.221387 1.46745C0.406176 0.808381 0.868148 0.425846 1.63964 0.278362C3.08561 0.00643918 4.49925 -0.0995647 5.9637 0.112443C7.31266 0.306015 8.6801 0.36593 10.0429 0.494979C12.1541 0.697769 13.9558 1.7025 15.8037 2.64271C17.5962 3.55526 18.9266 5.08541 20.6775 6.03022C21.1071 6.26067 21.5044 6.55563 21.9156 6.82295C22.5069 6.44502 23.0243 5.98874 23.6203 5.75369C26.0872 4.78122 28.665 4.50008 31.2983 4.71209C31.4599 4.72591 31.6263 4.79044 31.7695 4.86418C33.6866 5.83665 35.7378 6.68007 37.193 8.27474C38.4542 9.65279 39.7385 11.0954 40.3991 12.9343C40.9119 14.3677 41.4293 15.801 42.0252 17.1975C42.7967 18.9857 42.9584 20.8754 42.9954 22.7742C43.0323 24.8298 42.8429 26.8715 42.5796 28.9178C42.1361 32.3837 40.898 35.6099 39.7662 38.873C39.7154 39.0297 39.5907 39.1633 39.5676 39.32C39.1749 42.1268 38.3433 44.8737 38.8145 47.7865C39.1934 50.1002 39.355 52.4553 39.4983 54.8012C39.5583 55.7737 39.4243 56.7876 39.1934 57.7371C38.8053 59.3317 36.768 60.1982 35.1881 59.705C33.4741 59.1704 33.1877 58.7326 33.1923 56.9536C33.197 55.1791 33.1092 53.4001 33.0029 51.6257C32.8782 49.5241 32.6934 47.4224 32.5271 45.3208C32.504 45.0535 32.4162 44.7908 32.3654 44.5741C31.6309 44.6848 30.9934 44.7723 30.3604 44.8783C30.2034 44.906 30.0001 44.9336 29.9077 45.0443C29.3395 45.6987 28.6281 45.6987 27.912 45.4775C27.4685 45.9522 27.6394 46.3439 27.8473 46.7772C28.4202 47.9663 28.993 49.16 29.5058 50.3721C30.1341 51.8561 29.552 53.7366 27.6025 54.0822C27.122 54.1698 26.6462 54.2988 25.9948 54.4509C25.9486 55.4833 25.847 56.5019 25.8655 57.5251C25.9255 61.037 26.0687 64.549 26.0964 68.0655C26.1011 68.9965 25.9117 69.9598 25.6437 70.8585C25.2418 72.2135 24.0499 73.0569 22.6548 72.997C21.8833 72.9647 21.1071 72.7481 20.368 72.5177C19.4949 72.2411 19.3239 71.4208 19.1207 70.6511C18.7418 69.25 19.0514 67.8627 19.2084 66.4755C19.4487 64.3554 19.1761 62.2814 18.7511 60.212C18.7372 60.1291 18.7003 60.0553 18.6864 59.9724C18.2244 56.7047 17.7856 53.4324 17.2913 50.1693C17.0603 48.6576 16.723 47.1689 16.4181 45.6711C15.9284 43.2652 15.8453 40.8364 15.9608 38.3937C16.0116 37.3613 16.0763 36.3289 16.1825 35.3011C16.2564 34.5867 16.4043 33.8816 16.5521 32.9644L16.5521 32.9644Z" transform="translate(30 0)" id="Fill-50" fill="#FFF0DF" fill-rule="evenodd" stroke="none" />
    <path d="M1.20196 1.99979C0.330258 1.98885 -0.0269992 1.72619 0.00158133 1.13158C0.0396887 0.456714 0.716095 -0.0211654 1.60209 0.000722147C2.45951 0.0189618 3.04065 0.449418 2.99778 1.02579C2.95491 1.59487 2.18323 2.01073 1.20196 1.99979" transform="translate(53 21)" id="Fill-51" fill="#FFF0DF" fill-rule="evenodd" stroke="none" />
  </g>
</svg>