<?xml version="1.0" encoding="utf-8"?>
<svg width="111px" height="106px" viewBox="0 0 111 106" version="1.1" xmlns:xlink="http://www.w3.org/1999/xlink" xmlns="http://www.w3.org/2000/svg">
  <desc>Created with Lunacy</desc>
  <g id="Group">
    <path d="M55.1298 54C51.2631 54 47.3984 53.2246 43.8194 51.6759L26.7058 44.274C20.5145 41.5946 13.9682 39.8976 7.24907 39.2293L1.62907 38.6701C0.703793 38.5785 0 37.8041 0 36.8794L0 19.3397C0 18.9505 0.127304 18.5715 0.362247 18.2605C0.782452 17.7014 10.855 4.60915 26.2411 8.01556C34.8947 9.92883 41.8622 13.5093 46.1833 16.1763C49.3204 18.1122 52.9977 19.1348 56.8179 19.1348L73.9314 19.1348C76.8811 19.1348 79.4738 20.6876 80.9238 23.0169L95.6631 6.12185C98.5207 2.32517 103.196 0 108.09 0L109.191 0C109.803 0 110.372 0.306865 110.706 0.815561C111.04 1.32426 111.093 1.96785 110.847 2.52391L97.5168 32.6667C94.6022 39.2592 88.6676 44.239 81.6431 45.9865L79.2978 46.5693L65.6546 51.9992C62.2971 53.3348 58.7129 54 55.1298 54L55.1298 54ZM3.61833 35.2503L7.60925 35.6478C14.702 36.3532 21.6127 38.146 28.1497 40.9737L45.2622 48.3755C51.2796 50.9787 58.2192 51.0807 64.3122 48.6556L78.0672 43.1815C78.1438 43.1516 78.2214 43.1269 78.3011 43.1073L80.7654 42.4936C86.7135 41.0138 91.7384 36.798 94.2048 31.2168L106.364 3.72357C103.251 4.17975 100.386 5.84897 98.4772 8.38009L82.1492 27.103C82.1513 27.173 82.1523 27.242 82.1523 27.313C82.1523 31.8223 78.4647 35.4913 73.9324 35.4913L50.0552 35.4913C46.9513 35.4913 43.8836 35.9866 40.939 36.9628L40.2746 35.2843L39.7126 33.5739L39.8047 33.544C43.1094 32.4484 46.5611 31.8913 50.0552 31.8913L73.9324 31.8913C76.4692 31.8913 78.535 29.837 78.535 27.312C78.535 24.7871 76.4702 22.7327 73.9324 22.7327L56.8189 22.7327C52.3239 22.7327 47.9873 21.5228 44.2779 19.2336C40.1959 16.7138 33.6154 13.3332 25.4587 11.528C13.8068 8.95675 5.42231 17.8538 3.61936 19.9761L3.61936 35.2503L3.61833 35.2503Z" transform="translate(0 52)" id="Shape" fill="#609ED5" stroke="none" />
    <path d="M11.5813 26C8.74537 26 5.56549 25.1703 2.06487 23.512C1.64075 23.31 1.31369 22.9602 1.15332 22.5373C1.01089 22.1585 -2.28399 13.1789 2.95216 6.53846C6.75768 1.71131 13.9129 -0.462856 24.2312 0.0819353C25.1723 0.130917 25.9224 0.845643 25.9688 1.7393C26.0058 2.43303 26.7665 18.8078 17.9537 24.2597C16.08 25.4202 13.9509 26 11.5813 26L11.5813 26ZM4.41655 20.708C9.26023 22.8602 13.1322 23.0711 15.9386 21.3348C21.1642 18.101 22.2942 8.50171 22.3216 3.50562C14.2368 3.31869 8.73271 5.04503 5.90626 8.62866C2.5428 12.896 3.85 18.7658 4.41655 20.708Z" transform="translate(60 24)" id="Shape" fill="#609ED5" stroke="none" />
    <path d="M17.4962 27C14.3229 27 10.6622 26.3261 7.46742 24.0072C2.04855 20.0715 -0.441751 12.5788 0.0640922 1.73795C0.107099 0.831676 0.832072 0.103002 1.74648 0.0492141C2.5206 0.00557482 20.8436 -0.963622 27.0089 8.20874C29.8801 12.4783 29.6446 18.0702 26.3116 24.8322C26.1088 25.2433 25.7546 25.5609 25.3214 25.7182C25.0808 25.8065 21.7211 27 17.4962 27ZM24.704 24.0538L24.7214 24.0538L24.704 24.0538ZM3.58656 3.53934C3.43194 12.2225 5.44609 18.1412 9.58192 21.1452C14.5339 24.7409 21.2952 23.2125 23.4209 22.5985C25.8529 17.3679 26.0587 13.1917 24.0312 10.1755C20.263 4.56943 9.21227 3.47337 3.58656 3.53934Z" transform="translate(26 0)" id="Shape" fill="#609ED5" stroke="none" />
    <path d="M20.9047 62C20.8476 62 20.7905 61.9969 20.7324 61.9918C19.7658 61.9011 19.0421 61.0717 19.0909 60.1084C19.1979 57.9901 19.3806 55.981 19.6287 54.077C20.3835 41.3342 19.9942 11.6594 1.08799 3.44998C0.17019 3.05125 -0.249256 1.99004 0.15254 1.07823C0.553297 0.168469 1.62579 -0.246743 2.54255 0.150954C13.6838 4.98822 20.6929 17.0314 22.8078 34.9783C22.9978 36.5866 23.14 38.1722 23.2459 39.7166C28.2253 27.2304 35.8428 22.8186 36.2965 22.5662C37.1686 22.0768 38.2754 22.388 38.7675 23.2524C39.2565 24.1178 38.9492 25.2131 38.0802 25.7014C37.8881 25.8127 26.207 32.7693 23.275 54.2222C23.0518 57.8922 22.7299 60.232 22.6998 60.4463C22.5742 61.3447 21.8007 62 20.9047 62Z" transform="translate(37 12)" id="Shape" fill="#609ED5" fill-rule="evenodd" stroke="none" />
  </g>
</svg>