<?xml version="1.0" encoding="utf-8"?>
<svg width="25px" height="25px" viewBox="0 0 25 25" version="1.1" xmlns:xlink="http://www.w3.org/1999/xlink" xmlns="http://www.w3.org/2000/svg">
  <desc>Created with Lunacy</desc>
  <g id="parcel">
    <path d="M12.3806 10.3015C12.0387 10.3015 11.7612 11.2705 11.7612 10.9259L11.7612 1.63441L0.895842 7.11364C0.593578 7.26723 0.218227 7.14361 0.0646176 6.83394C-0.0865141 6.52676 0.0361255 6.15091 0.342105 5.99732L12.1031 0.0660649C12.2939 -0.0313325 12.5243 -0.0200943 12.7052 0.093536C12.8885 0.207166 13 0.408205 13 0.624227L13 10.5094C13 10.854 12.7225 10.3015 12.3806 10.3015Z" transform="translate(12 6)" id="Shape" fill="#0E498D" fill-rule="evenodd" stroke="none" />
    <path d="M12.3818 19C12.2827 19 12.1836 18.9763 12.0931 18.9277L0.330792 12.6982C0.127609 12.591 0 12.3792 0 12.1475L0 0.62284C0 0.407297 0.111503 0.206706 0.293624 0.0933281C0.474507 -0.0200496 0.703707 -0.0312628 0.89574 0.0659181L12.6581 5.98399C12.8674 6.08989 13 6.30543 13 6.54091L13 18.377C13 18.5951 12.886 18.7969 12.7014 18.9103C12.6035 18.9701 12.4933 19 12.3818 19ZM1.23892 11.7712L11.7623 17.3442L11.7623 6.92589L1.23892 1.63078L1.23892 11.7712Z" transform="translate(0 6)" id="Shape" fill="#0E498D" stroke="none" />
    <path d="M24.3755 7C24.2817 7 24.1867 6.9793 24.0955 6.93547L12.4926 1.28872L0.904783 6.93547C0.598524 7.08401 0.221013 6.96469 0.0660082 6.66397C-0.0877464 6.36325 0.0360073 5.99678 0.344766 5.84703L12.2126 0.0639186C12.3889 -0.0213062 12.5964 -0.0213062 12.7714 0.0639186L24.6542 5.84703C24.963 5.998 25.088 6.36325 24.9342 6.66397C24.8242 6.87703 24.6042 7 24.3755 7Z" id="Shape" fill="#0E498D" fill-rule="evenodd" stroke="none" />
    <path d="M0 6.65352C0 6.41395 0.132557 6.19467 0.341923 6.08693L12.1036 0.0661175C12.4058 -0.0885223 12.7812 0.0369641 12.9348 0.350046C13.0872 0.663128 12.9633 1.04339 12.6573 1.20057L1.23885 7.04646L0 6.65352Z" transform="translate(6 3)" id="Shape" fill="#0E498D" fill-rule="evenodd" stroke="none" />
    <path d="M0.614972 9C0.394707 9 0.181825 8.88109 0.0723071 8.67051C-0.0876623 8.36828 0.0267774 7.99296 0.327028 7.83317L12.0959 0.0716542C12.3973 -0.0868958 12.7677 0.0258233 12.9277 0.329298C13.0877 0.631534 12.9732 1.00685 12.673 1.16664L0.904148 8.92816C0.810627 8.97647 0.712185 9 0.614972 9Z" transform="translate(12 16)" id="Shape" fill="#0E498D" fill-rule="evenodd" stroke="none" />
  </g>
</svg>