<?xml version="1.0" encoding="utf-8"?>
<svg width="108px" height="110px" viewBox="0 0 108 110" version="1.1" xmlns:xlink="http://www.w3.org/1999/xlink" xmlns="http://www.w3.org/2000/svg">
  <desc>Created with Lunacy</desc>
  <g id="Group" transform="translate(1.5 1.5)">
    <g id="g2359">
      <g id="g2349" transform="translate(0.58767444 0.5887077)">
        <path d="M103.825 52.0036C103.825 80.7244 80.5827 104.007 51.9123 104.007C23.2419 104.007 3.4798e-15 80.7244 0 52.0036C-3.4798e-15 23.2828 23.2419 0 51.9123 0C80.5827 0 103.825 23.2828 103.825 52.0036Z" transform="translate(-6.5181393E-06 2.842171E-14)" id="path2270" fill="#609ED5" fill-rule="evenodd" stroke="#609ED5" stroke-width="3" />
        <g id="g2293" transform="translate(0 52.0036)">
          <path d="M103.825 0C103.825 28.706 80.5679 52.0036 51.9123 52.0036C23.2567 52.0036 0 28.706 0 0C24.2102 0 77.2228 0 103.825 0Z" transform="translate(-6.5181393E-06 2.842171E-14)" id="path2255" fill="#0E498C" fill-rule="evenodd" stroke="none" />
        </g>
      </g>
    </g>
    <g id="g2380" transform="translate(15 24)">
      <g id="g2272" transform="translate(8.1419935 0)">
        <path d="M0 0L5.23414 0L5.23414 16.644C5.23414 16.644 5.24868 18.2292 6.83346 18.2292C8.41824 18.2292 8.65087 16.6585 8.65087 16.6585L8.65087 0.0144113L13.7542 0.0144113L13.7542 16.6729C13.7542 16.6729 13.7719 22.2353 6.93523 22.2353C0.139696 22.2353 0.00726964 16.6801 0.00726964 16.6801L0 0Z" id="path1308" fill="#0E498C" fill-rule="evenodd" stroke="none" />
        <path d="M8.67049 6.89374L13.3997 6.89374C13.3997 6.89374 13.8109 0 6.86106 0C4.97003 0 3.08909 0.814868 2.09672 1.88976C1.02012 3.05588 0.486955 4.21828 0.486955 6.21632C0.486955 7.78312 0.653224 10.156 4.72265 12.4326C7.2146 13.8268 8.67049 14.8634 8.67049 16.3378C8.67049 17.8121 7.84802 18.3302 6.69657 18.3302C5.15359 18.3302 4.95911 16.6913 4.95911 16.4972C4.95911 16.278 4.92827 14.6641 4.92827 14.6641L0.0345978 14.6641C0.0345978 14.6641 -0.870113 22.2353 6.5732 22.2353C13.8166 22.2353 13.3997 16.6964 13.3997 15.5408C13.3997 11.8347 11.5884 10.6151 8.71161 9.0057C6.35086 7.68497 5.17501 6.89374 5.17501 5.57875C5.17501 4.26376 6.06825 3.90512 6.77882 3.90512C8.70496 3.90512 8.68357 5.69916 8.68357 5.88757C8.68357 6.05417 8.71161 6.93359 8.67049 6.89374Z" transform="translate(15.202425 0)" id="path2183" fill="#0E498C" fill-rule="evenodd" stroke="none" />
        <path d="M0 0C0 0 5.22266 0 7.19658 0C9.17049 0 13.4062 0.676356 13.4062 4.86133C13.4062 10.0626 13.4062 11.8482 13.4062 17.4162C13.4062 20.5331 10.599 22.2353 7.60731 22.2353C5.13991 22.2353 0 22.2353 0 22.2353L0 0ZM5.14484 4.08107C5.14484 4.08107 6.35892 4.08107 6.81778 4.08107C7.74601 4.08107 8.26129 4.50915 8.26129 7.1579C8.26129 10.4499 8.26129 11.58 8.26129 15.1041C8.26129 17.0768 8.19063 18.1542 6.91326 18.1542C6.33968 18.1542 5.14484 18.1542 5.14484 18.1542L5.14484 4.08107Z" transform="translate(30.781622 0)" id="path2185" fill="#0E498C" fill-rule="evenodd" stroke="none" />
        <path d="M4.97243 22.2353L0 22.2353L4.71072 0L10.7009 0L15.5279 22.175L10.2647 22.175L9.65408 18.1076L5.78663 18.1076L4.97243 22.2353ZM6.33912 14.1607L9.07251 14.1607L7.79305 4.12769L6.33912 14.1607Z" transform="translate(45.856873 0)" id="path2192" fill="#0E498C" fill-rule="evenodd" stroke="none" />
      </g>
      <g id="g2278" transform="translate(0 34.27941)">
        <path d="M3.73457 16.6765L0 16.6765L3.53802 0L8.03698 0L11.6624 16.6313L7.70939 16.6313L7.25075 13.5807L4.34608 13.5807L3.73457 16.6765ZM4.76104 10.6205L6.81396 10.6205L5.85302 3.09577L4.76104 10.6205Z" transform="translate(35.557415 0.02804658)" id="path2199" fill="#609ED5" fill-rule="evenodd" stroke="none" />
        <path d="M4.1722 0L6.14975 0C8.46115 0 10.3219 1.82712 10.3219 4.09667L10.3219 12.5798C10.3219 14.8494 8.46115 16.6765 6.14975 16.6765L4.1722 16.6765C1.8608 16.6765 0 14.8494 0 12.5798L0 4.09667C0 1.82712 1.8608 0 4.1722 0ZM5.16097 2.78613C5.89001 2.78613 6.47691 3.38943 6.47691 4.13882L6.47691 12.5377C6.47691 13.287 5.89001 13.8903 5.16097 13.8903C4.43194 13.8903 3.84503 13.287 3.84503 12.5377L3.84503 4.13882C3.84503 3.38943 4.43194 2.78613 5.16097 2.78613Z" transform="translate(0.020994248 0.02804658)" id="rect2201" fill="#609ED5" fill-rule="evenodd" stroke="none" />
        <path d="M3.90671 10.0981L3.90671 16.6765L0 16.6765L0 0C0 0 3.70109 0 6.04512 0C8.38915 0 10.3219 1.00163 10.3219 4.52527C10.3219 8.04518 8.55364 7.94018 8.55364 8.35919C8.55364 8.95728 10.2808 7.88268 10.2808 12.6121C10.2808 16.4146 10.8565 16.048 10.8565 16.3517C10.8565 16.6555 10.836 16.666 10.836 16.666L6.41523 16.666C6.41523 16.666 6.41523 13.2825 6.41523 11.9207C6.41523 10.3907 5.51704 10.0981 3.90671 10.0981ZM3.84503 6.91362C3.84503 6.91362 3.84503 3.75601 3.84503 3.00114C4.69344 3.00114 6.41523 2.67078 6.41523 4.92333C6.41523 7.14565 5.19731 6.91362 3.84503 6.91362Z" transform="translate(12.111239 0.02804658)" id="path2210" fill="#609ED5" fill-rule="evenodd" stroke="none" />
        <path d="M6.57973 10.4629L5.22266 10.4629L5.22266 7.69683L10.4453 7.69683L10.4453 16.3959L7.69005 16.3959L7.69005 14.9527C7.69005 14.9527 6.94984 16.6765 4.2357 16.6765C1.52156 16.6765 0 14.8324 0 12.6276C0 10.4228 0 5.77262 0 3.64798C0 1.52333 2.34403 0 5.18153 0C8.01904 0 10.2911 1.56342 10.2911 3.56781C10.2911 5.57219 10.2808 5.8528 10.2808 5.8528L6.49748 5.8528C6.49748 5.8528 6.49748 4.73035 6.49748 4.00877C6.49748 3.28719 5.67501 2.76605 5.22266 2.76605C4.7703 2.76605 3.8039 3.08675 3.8039 4.14908C3.8039 5.2114 3.8039 11.1845 3.8039 12.1466C3.8039 13.1087 4.19458 13.7902 5.14041 13.7902C6.08625 13.7902 6.62085 12.9884 6.62085 12.2668C6.62085 11.5452 6.62085 10.3426 6.57973 10.4629Z" transform="translate(23.995867 0.02804658)" id="path2217" fill="#609ED5" fill-rule="evenodd" stroke="none" />
        <path d="M3.61885 8.2144L3.61885 16.6352L0 16.6352L0 0L4.03008 0L6.86759 9.20508L6.86759 0.0412789L10.4453 0.0412789L10.4453 16.6765L6.29186 16.6765L3.61885 8.2144Z" transform="translate(48.258602 0.02804658)" id="path2219" fill="#609ED5" fill-rule="evenodd" stroke="none" />
        <path d="M0 0L3.78334 0L3.78334 16.6765L0 16.6765L0 0Z" transform="translate(60.59559 0.02804658)" id="rect2221" fill="#609ED5" fill-rule="evenodd" stroke="none" />
        <path d="M6.49748 5.93297L10.2808 5.93297C10.2808 5.93297 10.2808 4.93079 10.2808 3.48763C10.2808 2.04447 8.88263 0 4.81142 0C0.740219 0 0 2.84623 0 4.12903C0 5.41183 0 10.8638 0 12.4272C0 13.9906 0.699095 16.6765 4.93479 16.6765C9.17049 16.6765 10.4864 14.0307 10.4864 13.0686C10.4864 12.1065 10.4864 10.1422 10.4864 10.1422L6.5386 10.1422C6.5386 10.1422 6.5386 11.8981 6.5386 12.5875C6.5386 13.2137 5.92657 13.7902 5.22266 13.7902C4.54132 13.7902 3.90671 13.3893 3.90671 12.5875C3.90671 11.7858 3.90671 4.8907 3.90671 4.12903C3.90671 3.36737 4.28066 2.98654 5.22266 2.98654C6.03769 2.98654 6.51804 3.70811 6.51804 4.24929C6.51804 4.79048 6.5386 5.97306 6.49748 5.93297Z" transform="translate(66.352844 0.02804658)" id="path2224" fill="#609ED5" fill-rule="evenodd" stroke="none" />
      </g>
    </g>
  </g>
</svg>