<?xml version="1.0" encoding="UTF-8"?>
<svg width="23px" height="21px" viewBox="0 0 23 21" version="1.1" xmlns="http://www.w3.org/2000/svg" xmlns:xlink="http://www.w3.org/1999/xlink">
    <!-- Generator: Sketch 57.1 (83088) - https://sketch.com -->
    <title>CHECK</title>
    <desc>Created with Sketch.</desc>
    <g id="PDPs-+-Homepage" stroke="none" stroke-width="1" fill="none" fill-rule="evenodd">
        <g id="PDP-—-Probiotic-v1" transform="translate(-231.000000, -2975.000000)" fill="#0053A5">
            <g id="008_PERFECT-FOR" transform="translate(0.000000, 2835.000000)">
                <g id="CHECK-LIST" transform="translate(231.910786, 140.079893)">
                    <path d="M3.0458093,8.76019857 C3.60373968,8.77445286 4.07604709,8.94550434 4.46549354,9.27905472 C4.85217797,9.61260511 5.36867788,10.3025127 6.01499328,11.3544793 C7.02313481,12.9965735 7.72745287,13.689332 8.11966136,13.4327548 C8.51186985,13.1761776 9.923268,11.1321124 12.7322541,7.06108721 L17.4884726,0.267492642 C17.6431463,0.0422748612 17.9221115,-0.0518034522 18.1789805,0.0280205713 L19.5765685,0.455649269 C20.7255736,0.83481338 21.4326537,1.27099465 21.6978087,1.75564051 C21.9629638,2.24598808 21.8193381,2.87887855 21.2696938,3.65146107 C14.4391897,13.3871411 9.68020922,19.6077132 8.04508651,20.454418 L7.24133531,20.8478364 C6.92370168,21.0017827 6.54806538,20.8934501 6.35196113,20.5912592 L3.09552587,15.5309863 C1.29191923,12.7827592 0.289301752,11.1520684 0.0876734446,10.6446157 C-0.119478926,10.1343121 0.0407189072,9.70953428 0.565504913,9.36743132 C1.29468126,8.88848718 2.12329074,8.68607626 3.0458093,8.76019857" id="CHECK"></path>
                </g>
            </g>
        </g>
    </g>
</svg>