<?xml version="1.0" encoding="UTF-8"?>
<svg width="181px" height="35px" viewBox="0 0 181 35" version="1.1" xmlns="http://www.w3.org/2000/svg" xmlns:xlink="http://www.w3.org/1999/xlink">
    <!-- Generator: Sketch 57.1 (83088) - https://sketch.com -->
    <title>logo</title>
    <desc>Created with Sketch.</desc>
    <g id="Page-1" stroke="none" stroke-width="1" fill="none" fill-rule="evenodd">
        <g id="007_HowIt'sMade" transform="translate(-96.000000, -22.000000)" fill="#0E498D">
            <g id="001_NAV" transform="translate(0.000000, -3.000000)">
                <g id="logo" transform="translate(96.000000, 25.000000)">
                    <path d="M131.451159,22.1157371 C132.185174,22.5547796 132.886048,22.7855937 133.695086,22.6322685 C135.089368,22.3680351 135.709211,21.369126 136.024049,20.1302216 C136.364016,18.7917936 136.353455,17.4227006 136.076674,16.0734388 C135.965598,15.5324855 135.787875,14.9729862 135.503447,14.5065838 C134.709887,13.2061658 133.294664,12.869952 131.962293,13.5690048 C131.612675,13.7524442 131.438777,13.9683848 131.441832,14.3936557 C131.460264,16.9458317 131.451159,19.497824 131.451159,22.1157371 Z M124.631611,13.2992626 C124.485026,13.1997389 124.418562,13.1426322 124.34263,13.1049895 C122.951807,12.4136489 122.456697,10.7671015 123.211289,9.418207 C123.387554,9.10255907 123.62391,9.04122899 123.937838,9.0404945 C124.58718,9.03902552 125.241257,9.06711984 125.884772,9.00009744 C127.024489,8.88166061 128.158197,8.70299544 129.293544,8.54507966 C129.497306,8.5166181 129.696333,8.44849397 129.900277,8.42921355 C130.845883,8.33942191 131.356107,8.76781436 131.435135,9.71108568 C131.457168,9.97550279 131.463541,10.240838 131.486485,10.689429 C131.788394,10.4354784 131.997255,10.2659944 132.199377,10.0886146 C134.542544,8.03460774 137.417968,7.93232973 139.758403,9.24064357 C141.425279,10.1723466 142.384178,11.7057823 142.911882,13.4816002 C143.781556,16.4085508 143.704895,19.3413772 142.579199,22.1941441 C141.748493,24.299749 140.325986,25.8759687 138.13778,26.6113788 C135.942108,27.3495433 133.897026,27.0287539 132.050972,25.5856608 C131.915131,25.4797103 131.765451,25.3917549 131.526727,25.2309012 C131.494861,25.4969709 131.454801,25.6813284 131.45389,25.8660531 C131.449156,26.6971308 131.444239,27.5285757 131.460628,28.3592861 C131.485392,29.6229796 131.92551,30.7390401 132.739282,31.6918598 C133.608956,32.7104166 133.482584,33.7361346 132.836155,34.8406269 C132.605262,34.8406269 132.372183,34.8566021 132.141836,34.8380562 C129.84055,34.6529642 127.540903,34.8077584 125.240892,34.8650488 C124.975401,34.8716592 124.709182,34.8856146 124.444237,34.8747808 C122.978028,34.8154706 122.252936,33.4236083 123.027375,32.149632 C123.180697,31.8975176 123.37153,31.6683561 123.547614,31.4305643 C124.140507,30.6294172 124.549487,29.7603296 124.569153,28.7377331 C124.577711,28.2929982 124.628333,27.8488142 124.628879,27.4044465 C124.633432,22.9815195 124.631611,18.5585924 124.631611,14.135849 C124.631611,13.8433375 124.631611,13.5508261 124.631611,13.2992626 L124.631611,13.2992626 Z" id="Fill-1"></path>
                    <path d="M20.697004,26.6313937 C20.1678431,26.5794284 19.6435986,26.4852298 19.1189899,26.4844953 C17.7915352,26.4828427 16.4637163,26.518282 15.1362616,26.548947 C14.6054618,26.5610661 14.0733873,26.5805302 13.5449547,26.6304756 C11.6732254,26.8065701 11.0797857,25.2700129 11.713832,23.9413169 C12.5967988,22.0913152 12.7311831,20.1961423 12.6816539,18.2282546 C12.6612596,17.4271075 12.6911227,16.6241242 12.6497877,15.8242624 C12.5935211,14.7430902 12.0927666,14.2173776 11.0071308,14.1053676 C10.6039779,14.0636851 10.1775171,14.0886579 9.78110161,14.1745934 C8.72496479,14.4032041 8.56709054,14.6338345 8.56690845,15.7447536 C8.56654427,17.0213007 8.57874447,18.298215 8.56381288,19.5745784 C8.54742455,20.962401 8.78541952,22.2892608 9.43931388,23.5217383 C9.98814085,24.5555358 9.83226962,25.5638096 9.412,26.6128478 C8.57583099,26.5575773 7.78445674,26.4541975 6.99453924,26.4644804 C5.49100101,26.4841281 3.98819115,26.5700637 2.4850171,26.6255178 C2.24938934,26.6339645 2.01230483,26.6167039 1.77667706,26.6286394 C0.523516097,26.6934583 -0.371468813,25.5346136 0.202486922,24.0705875 C0.298267606,23.8265525 0.456870221,23.6030833 0.61001006,23.3867754 C1.2939497,22.420184 1.71203421,21.3636173 1.71294467,20.1630901 C1.71476559,17.879371 1.71349095,15.5956518 1.71349095,13.2594164 C1.66359759,13.222141 1.60004728,13.1453865 1.52083702,13.1211483 C-0.0571770624,12.6409742 -0.187737425,10.864789 0.208131791,9.72155219 C0.428463783,9.08493127 0.489282696,9.06987418 1.16684909,9.03553668 C2.46170926,8.9694324 3.75711569,8.90700058 5.04906237,8.80178461 C5.54344366,8.76157117 6.03054125,8.61595814 6.51800302,8.5046826 C7.93286217,8.18113889 8.5339497,8.64111449 8.56290241,10.085493 C8.57164286,10.517007 8.56435915,10.9490719 8.56435915,11.6003827 C8.8322173,11.2761045 8.96478068,11.1341639 9.07640342,10.9775335 C10.814659,8.53277692 13.5575191,7.85686068 16.3085734,8.74173989 C18.149165,9.33392405 19.4542223,10.9861637 19.5285161,13.5802058 C19.5864215,15.597488 19.5660272,17.6180754 19.5359819,19.6364594 C19.5155875,21.022813 19.8486348,22.2918315 20.6858964,23.3842047 C21.5186056,24.4708856 21.3618239,25.5089064 20.697004,26.6313937" id="Fill-3"></path>
                    <path d="M32.9148682,19.1370048 C31.7050453,19.0978931 30.9220473,19.3672681 30.3952535,19.9618393 C29.9917364,20.4168571 29.8759256,21.1831159 30.154163,21.7047888 C30.4460573,22.2525362 30.9646569,22.3777671 31.5149406,22.3226802 C31.8572746,22.288159 32.1926891,22.1489728 32.5220946,22.0309032 C32.7966901,21.9324813 32.9257938,21.727558 32.9194205,21.4150317 C32.904671,20.6790708 32.9148682,19.9423753 32.9148682,19.1370048 Z M32.9079487,16.2487988 C32.9079487,15.5172448 32.9407254,14.8650159 32.9004829,14.2173776 C32.8372968,13.2057985 32.3199718,12.7379271 31.3037133,12.7081802 C31.0975845,12.7021206 30.8898169,12.7046914 30.6845986,12.7239718 C29.798172,12.8067857 29.662331,12.9470737 29.5321348,13.8347073 C29.4678561,14.2724645 29.3795412,14.7065492 29.2894054,15.2127978 C28.0553642,15.6107089 26.7865433,15.8068182 25.5168119,15.3585945 C24.0937586,14.8563856 23.486662,13.3560021 24.0600714,11.9439413 C24.4078682,11.0871564 25.0244336,10.4600839 25.7659145,9.94906108 C27.0096066,9.09190894 28.4202777,8.63762565 29.8930423,8.49072726 C31.6831942,8.31242933 33.4882777,8.2786427 35.247838,8.80802779 C36.2447948,9.10825139 37.1749235,9.53737832 37.970668,10.2294534 C39.3285322,11.4101492 39.7513511,12.9764534 39.7711992,14.6960827 C39.7895905,16.2691809 39.7744769,17.84283 39.776662,19.4162954 C39.7772082,19.7425935 39.7812143,20.0694424 39.7994235,20.3951896 C39.8746278,21.7277417 40.2539266,22.2251764 41.507998,22.6576085 C41.5870262,22.6849683 41.6604095,22.7286706 41.7265091,22.7602538 C41.9770684,24.4661114 40.7056982,26.3592645 38.8252284,26.7916966 C36.5962334,27.3041884 34.6691479,26.8533939 33.286337,24.8629207 C33.2573843,24.8210546 33.1971117,24.8010397 33.020664,24.6846227 C32.9230624,24.8304194 32.8256429,25.0193675 32.6890734,25.1730599 C30.7131871,27.3980197 26.9036288,27.4668784 24.7166972,25.9793485 C22.5732857,24.5213819 22.1546549,21.6948732 23.7863863,19.6759383 C24.3911157,18.9276746 25.1329608,18.3468751 25.9980825,17.9335397 C27.6625905,17.1386358 29.42033,16.6762731 31.2476288,16.4651067 C31.7716911,16.4045111 32.2942968,16.3292256 32.9079487,16.2487988 L32.9079487,16.2487988 Z" id="Fill-5"></path>
                    <path d="M104.439913,15.9364561 C104.485437,15.1646886 104.400764,14.5368816 104.112875,13.929824 C103.487387,12.6110436 101.673199,12.2318621 100.635636,13.3780369 C99.888328,14.2037895 99.7175252,15.1692792 99.7395584,16.3014986 C101.326677,16.1782875 102.844965,16.0604016 104.439913,15.9364561 Z M110.776916,19.0244439 C107.199708,18.9262056 103.637796,18.8283346 99.9937596,18.7280764 C100.079707,19.6691443 100.519279,20.3489166 101.027135,20.9814978 C102.915435,23.3346265 106.400868,23.1126263 108.244373,21.1928479 C108.475813,20.9519345 108.671562,20.7392991 109.053957,20.7512346 C109.998471,20.7806143 110.539468,21.0668825 110.308392,22.1533798 C110.198044,22.6735837 110.20897,23.2251872 110.056558,23.7295996 C109.943661,24.103456 109.715863,24.4866772 109.435441,24.7571538 C108.291717,25.860728 106.847723,26.4037012 105.336355,26.714575 C102.890124,27.2178856 100.456275,27.0867788 98.1100121,26.1927184 C94.6067334,24.8579629 92.6117274,21.9001637 92.5296036,18.1122049 C92.4660533,15.1744206 93.4828581,12.7081802 95.6626881,10.7667343 C97.4027646,9.21677258 99.4767988,8.46042946 101.80558,8.39891576 C103.627599,8.35062291 105.387887,8.58419136 107.054216,9.38350226 C110.989236,11.2716975 112.150076,15.6468826 110.776916,19.0244439 L110.776916,19.0244439 Z" id="Fill-6"></path>
                    <path d="M157.94253,15.9351707 C158.002257,15.1496315 157.907204,14.4974026 157.587086,13.8706974 C156.939382,12.6022297 155.169261,12.2665669 154.154095,13.3697738 C153.395497,14.1942411 153.245817,15.1668921 153.232888,16.3101288 C154.847139,16.1815928 156.388188,16.0589326 157.94253,15.9351707 Z M164.328334,19.0305035 C160.692128,18.9306126 157.130762,18.8327415 153.494737,18.732667 C153.600533,19.6805289 154.033367,20.3656263 154.54614,21.0002274 C156.436807,23.3408697 159.934987,23.1201548 161.759554,21.1794434 C162.054726,20.8654481 162.340976,20.7258946 162.756875,20.7640882 C163.519115,20.8340486 164.012221,21.0681679 163.825941,22.0874591 C163.724697,22.6405316 163.712315,23.2149043 163.563727,23.7529197 C163.467582,24.1018034 163.254898,24.4607863 162.996509,24.7147369 C161.838218,25.8522814 160.367639,26.4073737 158.827136,26.7244906 C156.411678,27.2219253 154.002958,27.0899004 151.681642,26.2281576 C147.964587,24.8482308 146.101051,21.636481 146.022023,18.0102942 C145.934072,13.9669158 148.48264,9.90444069 152.977959,8.75183915 C155.622489,8.07353581 158.246989,8.22686101 160.728,9.49183982 C164.009308,11.1644617 165.539978,14.6817601 164.566147,18.253411 C164.504782,18.4783492 164.430124,18.6996149 164.328334,19.0305035 L164.328334,19.0305035 Z" id="Fill-7"></path>
                    <path d="M84.3582002,26.6290066 C83.8375976,26.6886841 83.3444909,26.7768231 82.848835,26.7962872 C81.251337,26.8594535 79.6678602,26.7103516 78.0911207,26.4492397 C77.5473924,26.3588972 77.2411127,26.1139441 77.0242404,25.5728072 C75.4189125,21.5646845 73.7709748,17.5738223 72.1467093,13.5734117 C71.974996,13.150528 71.7761509,12.8405724 71.3174598,12.6294059 C69.8057274,11.9327403 69.946667,9.88314042 70.5107897,8.9861421 C70.6093018,8.82951168 70.8982827,8.71584905 71.1002233,8.71474731 C73.5513712,8.69858849 76.0037938,8.66241476 78.4533028,8.72539744 C80.0737445,8.76707986 80.7101579,10.0226939 79.8650664,11.4472411 C79.4928692,12.0743136 79.4462535,12.6356491 79.7046429,13.2972428 C80.1134406,14.3431593 80.4674286,15.4107434 80.8545573,16.4656575 C81.2130976,17.4423482 81.5239296,18.4252821 81.5088159,19.4858885 C81.505174,19.7569161 81.4742183,20.0800925 81.908327,20.2572887 C81.9500262,20.0156409 82.0113913,19.8298144 82.0088421,19.6447224 C81.9955493,18.6476496 82.2397354,17.7093361 82.6084728,16.7945263 C83.1274366,15.5075127 83.6391167,14.2175612 84.176836,12.8719719 C83.2765704,12.0660506 83.049501,11.0344566 83.2465252,9.88607839 C83.2911378,9.62588461 83.3761751,9.37046502 83.4661288,9.12147224 C83.5653692,8.84695587 83.757659,8.69987385 84.0703119,8.7018937 C86.1372445,8.71639992 88.2043592,8.70868775 90.2709276,8.73770018 C91.0113159,8.74798307 91.5568652,9.09135807 91.7992304,9.84953741 C92.0437807,10.6143272 91.9146771,11.3221938 91.2808129,11.7720702 C90.053327,12.6435449 89.4615262,13.8892433 88.9330936,15.2329964 C87.4503139,19.0022256 85.9187334,22.7521744 84.3582002,26.6290066" id="Fill-8"></path>
                    <path d="M51.4999628,8.70317906 C52.9374014,8.70317906 54.2269809,8.70317906 55.5737374,8.70317906 C55.692826,9.99423233 55.6196247,11.1815386 55.1186881,12.3161451 C54.8604809,12.9013516 54.4198169,13.2706174 53.7671972,13.3148706 C53.0643199,13.3626125 52.3596217,13.3850145 51.6099467,13.4206374 C51.5846358,13.6349254 51.541662,13.8332383 51.5411157,14.0317347 C51.535835,15.8128778 51.5301901,17.5940208 51.5403873,19.3749802 C51.5485815,20.7796962 52.0868471,21.3077959 53.4856821,21.2800688 C53.8955724,21.2719894 54.3047344,21.1948677 54.7135322,21.1441878 C55.1179598,21.0938751 55.5220231,21.036952 55.9122475,20.9849867 C56.7602525,22.2920151 56.3472666,24.6912332 54.8098592,25.8609116 C53.9818843,26.4909221 53.0377344,26.7972053 52.0309447,26.9068282 C49.7984899,27.1497614 47.7315573,26.8219944 46.1191278,25.0470945 C44.9670282,23.7788105 44.6915221,22.2231565 44.6807787,20.5887282 C44.6671217,18.5106668 44.6771368,16.432789 44.6771368,14.354544 C44.6771368,14.061298 44.6771368,13.7678685 44.6771368,13.3855654 C43.5574497,13.2922849 42.5956368,12.9602946 42.1739105,11.8447849 C41.755826,10.7373546 41.9572203,9.69198889 42.582162,8.65745694 C43.2220352,8.65745694 43.888494,8.65745694 44.6033893,8.65745694 C44.6310674,8.45198281 44.6776831,8.28304965 44.6725845,8.11595273 C44.6070312,5.99455627 45.9475966,5.06083335 47.6164748,4.72994471 C48.106668,4.63280815 48.6114286,4.58635153 49.1112726,4.56909097 C49.8744225,4.5430165 50.6393934,4.56229692 51.4999628,4.56229692 C51.4999628,5.91871998 51.4999628,7.2373167 51.4999628,8.70317906" id="Fill-9"></path>
                    <path d="M176.147233,8.71364557 C177.550439,8.71364557 178.86369,8.71364557 180.190416,8.71364557 C180.292388,9.89048534 180.204802,10.9411761 179.874122,11.9714847 C179.59989,12.8264334 179.043233,13.3236845 178.137869,13.3591237 C177.520575,13.3829947 176.901461,13.3637143 176.217703,13.3637143 C176.188933,13.6494317 176.147598,13.873819 176.146869,14.0985735 C176.141406,15.8499696 176.137036,17.6015494 176.146141,19.3529455 C176.153607,20.7995274 176.695878,21.340848 178.153165,21.2795179 C178.941262,21.2464658 179.724988,21.1003019 180.510535,21.0044507 C181.357084,22.1526453 181.001821,24.6568957 179.436189,25.8482417 C178.635892,26.4575028 177.729071,26.752034 176.750506,26.8948927 C175.350032,27.099816 173.974687,27.0168184 172.67309,26.4474035 C170.762028,25.6111844 169.607015,24.1240217 169.420006,22.0371464 C169.269598,20.3573633 169.311843,18.6592178 169.286532,16.9689682 C169.269415,15.8143468 169.283255,14.6593581 169.283255,13.4070493 C168.096922,13.2684139 167.080299,12.9072275 166.709558,11.6202139 C166.398544,10.5412452 166.634718,9.58603842 167.187187,8.6587423 C167.858016,8.6587423 168.49971,8.6587423 169.193301,8.6587423 C169.224621,8.44886121 169.272147,8.25440446 169.280159,8.05792786 C169.354635,6.24079471 170.097572,5.3056028 171.854948,4.82928475 C172.886684,4.54962693 174.915377,4.46387499 176.147233,4.66714565 C176.147233,5.96976717 176.147233,7.29038374 176.147233,8.71364557" id="Fill-10"></path>
                    <path d="M68.5441901,26.6413094 C67.9818883,26.5893441 67.4266881,26.4962472 66.8711237,26.4945946 C65.4546258,26.4901877 64.0377636,26.5214036 62.6210835,26.548947 C61.8242465,26.5643713 61.0272274,26.6343317 60.2311187,26.6189074 C58.8359256,26.5920984 58.0798773,25.2927821 58.7190221,24.0391879 C58.8787173,23.7257435 59.1092465,23.4466365 59.3210201,23.1622045 C59.9370392,22.3353502 60.3483863,21.4341285 60.3534849,20.3797653 C60.3660493,17.9452916 60.3778853,15.510818 60.3868078,13.0765279 C60.3869899,13.0221755 60.3471117,12.9674559 60.318159,12.8923541 C60.2618924,12.8523242 60.1968853,12.7913614 60.1204064,12.7535351 C58.7308581,12.065867 58.2346559,10.4119746 58.9890654,9.06583448 C59.1691549,8.74449424 59.4144336,8.70299544 59.72217,8.70005747 C60.4011932,8.6930798 61.0844044,8.71768528 61.7586932,8.65323361 C63.0475443,8.52965533 64.3309326,8.34823581 65.6177807,8.20023568 C66.114165,8.14312893 66.6127344,8.08547131 67.111668,8.07280132 C68.3375151,8.04103454 69.0547777,9.6058697 68.4181821,10.4643072 C67.3358239,11.9246609 67.2030785,13.5675358 67.2249296,15.2811056 C67.2447777,16.8251913 67.2252938,18.3701952 67.2342163,19.9146482 C67.2415,21.1390464 67.5572485,22.2820995 68.3704738,23.2060904 C69.3162626,24.2808358 69.3382958,25.3686184 68.5441901,26.6413094" id="Fill-11"></path>
                    <path d="M59.913003,3.56834565 C59.8430795,2.11607139 60.7768501,0.778745119 62.4093099,0.307568515 C63.2924588,0.0530670454 64.1985513,-0.00220347593 65.1212143,0.21832774 C66.556832,0.56170274 67.5137284,1.51085 67.7253199,2.89573462 C67.955667,4.4040139 67.2953994,5.81717646 65.9712223,6.47344504 C64.6084416,7.14844317 63.1744628,7.21785266 61.7719859,6.62585213 C60.4565493,6.07039257 59.9018954,4.9758159 59.913003,3.56834565" id="Fill-12"></path>
                </g>
            </g>
        </g>
    </g>
</svg>